<svg xmlns="http://www.w3.org/2000/svg" xmlns:xlink="http://www.w3.org/1999/xlink" xmlns:dc="http://purl.org/dc/elements/1.1/" xmlns:cc="http://creativecommons.org/ns#" xmlns:rdf="http://www.w3.org/1999/02/22-rdf-syntax-ns#" xmlns:svg="http://www.w3.org/2000/svg" xmlns:sodipodi="http://sodipodi.sourceforge.net/DTD/sodipodi-0.dtd" xmlns:inkscape="http://www.inkscape.org/namespaces/inkscape"><defs> <rect id="busy-0-SVGID_1_" x="8" y="20" opacity="0.1" width="6" height="10"/>  <rect id="busy-2-SVGID_1_" x="8" y="20" width="6" height="10"/>  <rect id="busy-3-SVGID_1_" x="8" y="20" width="6" height="10"/> </defs><symbol viewBox="0 0 35 35" id="icon-alert"><title>alert</title> <path d="M17.5,10.1L26.3,26H8.7L17.5,10.1 M17.5,8L7,27h21L17.5,8L17.5,8z"/> <path d="M17.5,21L17.5,21c-0.3,0-0.5-0.2-0.5-0.5v-5c0-0.3,0.2-0.5,0.5-0.5l0,0c0.3,0,0.5,0.2,0.5,0.5v5C18,20.8,17.8,21,17.5,21z"/> <rect x="17" y="19" width="1" height="2"/> <circle cx="17.5" cy="23.2" r="0.8"/> </symbol><symbol viewBox="0 0 35 35" id="icon-alert_rood"><title>alert_rood</title> <g> <rect x="2" y="3" width="31" height="29"/> </g> <path fill="#DB0029" d="M17.5,10.1L26.3,26H8.7L17.5,10.1 M17.5,8L7,27h21L17.5,8L17.5,8z"/> <path fill="#DB0029" d="M17.5,21L17.5,21c-0.3,0-0.5-0.2-0.5-0.5v-5c0-0.3,0.2-0.5,0.5-0.5l0,0c0.3,0,0.5,0.2,0.5,0.5v5  C18,20.8,17.8,21,17.5,21z"/> <rect x="17" y="19" fill="#DB0029" width="1" height="2"/> <circle fill="#DB0029" cx="17.5" cy="23.2" r="0.8"/> </symbol><symbol viewBox="0 0 35 35" id="icon-bike"><title>bike</title> <g> <g> <path d="M11.6,25.6c-2.4,0-4.4-2-4.4-4.4s2-4.4,4.4-4.4s4.4,2,4.4,4.4S14,25.6,11.6,25.6z M11.6,17.7c-1.9,0-3.5,1.6-3.5,3.5    s1.6,3.5,3.5,3.5s3.5-1.6,3.5-3.5S13.6,17.7,11.6,17.7z"/> </g> </g> <g> <g> <path d="M24.9,25.6c-2.4,0-4.4-2-4.4-4.4s2-4.4,4.4-4.4s4.4,2,4.4,4.4S27.3,25.6,24.9,25.6z M24.9,17.7c-1.9,0-3.5,1.6-3.5,3.5    s1.6,3.5,3.5,3.5s3.5-1.6,3.5-3.5S26.8,17.7,24.9,17.7z"/> </g> </g> <g> <g> <path d="M11.6,21.6c-0.1,0-0.1,0-0.2,0c-0.2-0.1-0.3-0.4-0.2-0.6l3-6h8.1c0.2,0,0.4,0.2,0.4,0.4c0,0.2-0.2,0.4-0.4,0.4h-7.6    L12,21.4C11.9,21.5,11.8,21.6,11.6,21.6z"/> </g> </g> <g> <g> <path d="M24.9,21.6c-0.2,0-0.3-0.1-0.4-0.3l-4-10.5h-2.2c-0.2,0-0.4-0.2-0.4-0.4S18,10,18.2,10h2.5c0.2,0,0.3,0.1,0.4,0.3    l4.2,10.8c0.1,0.2,0,0.5-0.2,0.5C25,21.6,24.9,21.6,24.9,21.6z"/> </g> </g> <g> <g> <path fill="none" stroke="#000000" stroke-linecap="round" stroke-linejoin="round" stroke-miterlimit="10" d="M20.411,13.578"/> </g> </g> <g> <g> <path d="M16.2,13.3h-2.1c-0.2,0-0.4-0.2-0.4-0.4c0-0.2,0.2-0.4,0.4-0.4h2.1c0.2,0,0.4,0.2,0.4,0.4C16.6,13.1,16.4,13.3,16.2,13.3z    "/> </g> </g> <g> <g> <path d="M15.8,21.6h-4.2c-0.2,0-0.4-0.2-0.4-0.4c0-0.2,0.2-0.4,0.4-0.4h4.2c0.2,0,0.4,0.2,0.4,0.4C16.2,21.4,16,21.6,15.8,21.6z"/> </g> </g> <g> <g> <path d="M15.8,21.6c-0.1,0-0.2,0-0.3-0.1c-0.2-0.2-0.1-0.4,0-0.6l4.6-4.2c0.2-0.2,0.4-0.1,0.6,0c0.2,0.2,0.1,0.4,0,0.6L16,21.5    C16,21.6,15.9,21.6,15.8,21.6z"/> </g> </g> </symbol><symbol viewBox="0 0 35 35" id="icon-bus"><title>bus</title> <g> <circle cx="14.5" cy="20.5" r="1"/> </g> <g> <circle cx="20.5" cy="20.5" r="1"/> </g> <g> <path d="M23,9c0.552,0,1,0.449,1,1v12c0,0.551-0.448,1-1,1H12c-0.552,0-1-0.449-1-1V10c0-0.551,0.448-1,1-1H23 M23,8H12   c-1.104,0-2,0.895-2,2v12c0,1.105,0.896,2,2,2h11c1.104,0,2-0.895,2-2V10C25,8.895,24.104,8,23,8L23,8z"/> </g> <g> <path d="M22,9v8h-9V9H22 M22,8h-9c-0.552,0-1,0.448-1,1v8c0,0.552,0.448,1,1,1h9c0.552,0,1-0.448,1-1V9C23,8.448,22.552,8,22,8   L22,8z"/> </g> <g> <path d="M8.5,14.5L8.5,14.5C8.224,14.5,8,14.276,8,14v-2.5C8,11.224,8.224,11,8.5,11h0C8.776,11,9,11.224,9,11.5V14   C9,14.276,8.776,14.5,8.5,14.5z"/> </g> <g> <g> <path d="M12,26.25c0,0.414,0.336,0.75,0.75,0.75h0.5c0.414,0,0.75-0.336,0.75-0.75V25h-2V26.25z M21,25v1.25    c0,0.414,0.336,0.75,0.75,0.75h0.5c0.414,0,0.75-0.336,0.75-0.75V25H21z"/> </g> </g> </symbol><symbol viewBox="0 0 35 35" id="icon-bus_rood"><title>bus_rood</title> <g> <rect x="2" y="3" width="31" height="29"/> </g> <g> <circle fill="#DB0029" cx="14.5" cy="20.5" r="1"/> </g> <g> <circle fill="#DB0029" cx="20.5" cy="20.5" r="1"/> </g> <g> <path fill="#DB0029" d="M23,9c0.552,0,1,0.449,1,1v12c0,0.551-0.448,1-1,1H12c-0.552,0-1-0.449-1-1V10c0-0.551,0.448-1,1-1H23    M23,8H12c-1.104,0-2,0.895-2,2v12c0,1.105,0.896,2,2,2h11c1.104,0,2-0.895,2-2V10C25,8.895,24.104,8,23,8L23,8z"/> </g> <g> <path fill="#DB0029" d="M22,9v8h-9V9H22 M22,8h-9c-0.552,0-1,0.448-1,1v8c0,0.552,0.448,1,1,1h9c0.552,0,1-0.448,1-1V9   C23,8.448,22.552,8,22,8L22,8z"/> </g> <g> <path fill="#DB0029" d="M8.5,14.5L8.5,14.5C8.224,14.5,8,14.276,8,14v-2.5C8,11.224,8.224,11,8.5,11l0,0C8.776,11,9,11.224,9,11.5   V14C9,14.276,8.776,14.5,8.5,14.5z"/> </g> <g> <g> <path fill="#DB0029" d="M12,26.25c0,0.414,0.336,0.75,0.75,0.75h0.5c0.414,0,0.75-0.336,0.75-0.75V25h-2V26.25z M21,25v1.25    c0,0.414,0.336,0.75,0.75,0.75h0.5c0.414,0,0.75-0.336,0.75-0.75V25H21z"/> </g> </g> </symbol><symbol viewBox="0 0 35 35" id="icon-busy-0"><title>busy-0</title> <path opacity="0.1" d="M10.511,10.5c-0.963,0-1.871-0.513-2.368-1.34c-0.379-0.633-0.489-1.374-0.31-2.087  c0.178-0.71,0.623-1.309,1.252-1.684c1.253-0.75,3.02-0.299,3.771,0.953c0.379,0.629,0.49,1.368,0.312,2.08s-0.621,1.311-1.25,1.689  C11.492,10.365,11.005,10.5,10.511,10.5z M10.49,6c-0.313,0-0.621,0.085-0.891,0.247c-0.4,0.238-0.682,0.618-0.795,1.069  C8.689,7.77,8.759,8.242,9,8.645c0.483,0.805,1.595,1.092,2.404,0.608c0.399-0.24,0.681-0.621,0.794-1.073s0.042-0.922-0.199-1.323  C11.677,6.32,11.113,6,10.49,6z"/> <path opacity="0.1" d="M14.5,20.5c-0.276,0-0.5-0.224-0.5-0.5v-5.5c0-0.827-0.673-1.5-1.5-1.5H12c-0.276,0-0.5-0.224-0.5-0.5  S11.724,12,12,12h0.5c1.378,0,2.5,1.122,2.5,2.5V20C15,20.276,14.776,20.5,14.5,20.5z"/> <path opacity="0.1" d="M6.5,20.5C6.224,20.5,6,20.276,6,20v-5.5C6,13.122,7.122,12,8.5,12H9c0.276,0,0.5,0.224,0.5,0.5  S9.276,13,9,13H8.5C7.673,13,7,13.673,7,14.5V20C7,20.276,6.776,20.5,6.5,20.5z"/> <g opacity="0.1">  <clipPath id="busy-0-SVGID_2_"> <use xlink:href="#busy-0-SVGID_1_" overflow="visible"/> </clipPath> <path clip-path="url(#busy-0-SVGID_2_)" d="M12.5,29c-0.276,0-0.5-0.224-0.5-0.5V19c0-0.276,0.224-0.5,0.5-0.5S13,18.724,13,19v9.5   C13,28.776,12.776,29,12.5,29z"/> <path clip-path="url(#busy-0-SVGID_2_)" d="M8.5,29C8.224,29,8,28.776,8,28.5V19c0-0.276,0.224-0.5,0.5-0.5S9,18.724,9,19v9.5   C9,28.776,8.776,29,8.5,29z"/> </g> <path opacity="0.1" d="M17.511,10.5c-0.964,0-1.871-0.513-2.368-1.34c-0.379-0.633-0.489-1.374-0.31-2.087  c0.178-0.71,0.623-1.309,1.252-1.684c1.254-0.75,3.019-0.299,3.771,0.953c0.379,0.629,0.49,1.368,0.312,2.08  s-0.622,1.312-1.251,1.689C18.491,10.365,18.005,10.5,17.511,10.5z M17.49,6c-0.313,0-0.621,0.085-0.891,0.247  c-0.4,0.238-0.682,0.618-0.795,1.069C15.689,7.77,15.759,8.242,16,8.645c0.484,0.805,1.596,1.092,2.403,0.608  c0.4-0.24,0.682-0.621,0.795-1.073s0.042-0.922-0.199-1.323C18.677,6.32,18.113,6,17.49,6z"/> <path opacity="0.1" d="M21.5,21c-0.276,0-0.5-0.224-0.5-0.5v-6c0-0.827-0.673-1.5-1.5-1.5H19c-0.276,0-0.5-0.224-0.5-0.5  S18.724,12,19,12h0.5c1.378,0,2.5,1.122,2.5,2.5v6C22,20.776,21.776,21,21.5,21z"/> <g opacity="0.1"> <defs> <rect id="busy-0-SVGID_3_" x="14" y="20" opacity="0.1" width="6" height="10"/> </defs> <clipPath id="busy-0-SVGID_4_"> <use xlink:href="#busy-0-SVGID_3_" overflow="visible"/> </clipPath> <path clip-path="url(#busy-0-SVGID_4_)" d="M19.5,29c-0.276,0-0.5-0.224-0.5-0.5V19c0-0.276,0.224-0.5,0.5-0.5S20,18.724,20,19v9.5   C20,28.776,19.776,29,19.5,29z"/> </g> <path opacity="0.1" d="M24.511,10.5c-0.964,0-1.871-0.513-2.368-1.34c-0.379-0.633-0.489-1.374-0.31-2.087  c0.178-0.71,0.623-1.309,1.252-1.684c1.254-0.75,3.019-0.299,3.771,0.953c0.379,0.629,0.49,1.368,0.312,2.08  s-0.622,1.312-1.251,1.689C25.491,10.365,25.005,10.5,24.511,10.5z M24.49,6c-0.313,0-0.621,0.085-0.891,0.247  c-0.4,0.238-0.682,0.618-0.795,1.069C22.689,7.77,22.759,8.242,23,8.645c0.484,0.805,1.597,1.092,2.403,0.608  c0.4-0.24,0.682-0.621,0.795-1.073s0.042-0.922-0.199-1.323C25.677,6.32,25.113,6,24.49,6z"/> <path opacity="0.1" d="M28.5,21c-0.276,0-0.5-0.224-0.5-0.5v-6c0-0.827-0.673-1.5-1.5-1.5H26c-0.276,0-0.5-0.224-0.5-0.5  S25.724,12,26,12h0.5c1.378,0,2.5,1.122,2.5,2.5v6C29,20.776,28.776,21,28.5,21z"/> <g opacity="0.1"> <defs> <rect id="busy-0-SVGID_5_" x="21" y="20" opacity="0.1" width="6" height="10"/> </defs> <clipPath id="busy-0-SVGID_6_"> <use xlink:href="#busy-0-SVGID_5_" overflow="visible"/> </clipPath> <path clip-path="url(#busy-0-SVGID_6_)" d="M26.5,29c-0.276,0-0.5-0.224-0.5-0.5V19c0-0.276,0.224-0.5,0.5-0.5S27,18.724,27,19v9.5   C27,28.776,26.776,29,26.5,29z"/> </g> </symbol><symbol viewBox="0 0 35 35" id="icon-busy-1"><title>busy-1</title><metadata id="busy-1-metadata53"><rdf:RDF><cc:Work rdf:about=""><dc:format>image/svg+xml</dc:format><dc:type rdf:resource="http://purl.org/dc/dcmitype/StillImage"/></cc:Work></rdf:RDF></metadata><sodipodi:namedview pagecolor="#ffffff" bordercolor="#666666" borderopacity="1" objecttolerance="10" gridtolerance="10" guidetolerance="10" inkscape:pageopacity="0" inkscape:pageshadow="2" inkscape:window-width="1920" inkscape:window-height="1018" id="busy-1-namedview49" showgrid="false" inkscape:zoom="26.971429" inkscape:cx="19.249147" inkscape:cy="18.35032" inkscape:window-x="-8" inkscape:window-y="-8" inkscape:window-maximized="1" inkscape:current-layer="Layer_1"/><path d="M10.511,10.5c-0.963,0-1.871-0.513-2.368-1.34c-0.379-0.633-0.489-1.374-0.31-2.087c0.178-0.71,0.623-1.309,1.252-1.684  c1.253-0.75,3.02-0.299,3.771,0.953c0.379,0.629,0.49,1.368,0.312,2.08s-0.621,1.311-1.25,1.689  C11.492,10.365,11.005,10.5,10.511,10.5z M10.49,6c-0.313,0-0.621,0.085-0.891,0.247c-0.4,0.238-0.682,0.618-0.795,1.069  C8.689,7.77,8.759,8.242,9,8.645c0.483,0.805,1.595,1.092,2.404,0.608c0.399-0.24,0.681-0.621,0.794-1.073s0.042-0.922-0.199-1.323  C11.677,6.32,11.113,6,10.49,6z" id="busy-1-path3"/><path d="M14.5,20.5c-0.276,0-0.5-0.224-0.5-0.5v-5.5c0-0.827-0.673-1.5-1.5-1.5H12c-0.276,0-0.5-0.224-0.5-0.5S11.724,12,12,12h0.5  c1.378,0,2.5,1.122,2.5,2.5V20C15,20.276,14.776,20.5,14.5,20.5z" id="busy-1-path5"/><path d="M6.5,20.5C6.224,20.5,6,20.276,6,20v-5.5C6,13.122,7.122,12,8.5,12H9c0.276,0,0.5,0.224,0.5,0.5S9.276,13,9,13H8.5  C7.673,13,7,13.673,7,14.5V20C7,20.276,6.776,20.5,6.5,20.5z" id="busy-1-path7"/><g id="busy-1-g9"><defs id="busy-1-defs11"><rect id="busy-1-SVGID_1_" x="8" y="20" width="6" height="10"/></defs><clipPath id="busy-1-SVGID_2_"><use xlink:href="#busy-1-SVGID_1_" overflow="visible" id="busy-1-use15"/></clipPath><path clip-path="url(#busy-1-SVGID_2_)" d="M12.5,29c-0.276,0-0.5-0.224-0.5-0.5V19c0-0.276,0.224-0.5,0.5-0.5S13,18.724,13,19v9.5   C13,28.776,12.776,29,12.5,29z" id="busy-1-path17"/><path clip-path="url(#busy-1-SVGID_2_)" d="M8.5,29C8.224,29,8,28.776,8,28.5V19c0-0.276,0.224-0.5,0.5-0.5S9,18.724,9,19v9.5   C9,28.776,8.776,29,8.5,29z" id="busy-1-path19"/></g><path d="M17.511,10.5c-0.964,0-1.871-0.513-2.368-1.34c-0.379-0.633-0.489-1.374-0.31-2.087c0.178-0.71,0.623-1.309,1.252-1.684  c1.253-0.75,3.02-0.299,3.771,0.953c0.379,0.629,0.49,1.368,0.312,2.08s-0.622,1.312-1.251,1.689  C18.491,10.365,18.005,10.5,17.511,10.5z M17.49,6c-0.313,0-0.621,0.085-0.891,0.247c-0.4,0.238-0.682,0.618-0.795,1.069  C15.689,7.77,15.759,8.242,16,8.645c0.484,0.805,1.596,1.092,2.403,0.608c0.4-0.24,0.682-0.621,0.795-1.073s0.042-0.922-0.199-1.323  C18.677,6.32,18.113,6,17.49,6z" id="busy-1-path21" style="opacity:0.1"/><path d="M21.5,21c-0.276,0-0.5-0.224-0.5-0.5v-6c0-0.827-0.673-1.5-1.5-1.5H19c-0.276,0-0.5-0.224-0.5-0.5S18.724,12,19,12h0.5  c1.378,0,2.5,1.122,2.5,2.5v6C22,20.776,21.776,21,21.5,21z" id="busy-1-path23" style="opacity:0.1"/><g id="busy-1-g25" style="opacity:0.1"><defs id="busy-1-defs27"><rect id="busy-1-SVGID_3_" x="14" y="20" width="6" height="10"/></defs><clipPath id="busy-1-SVGID_4_"><use xlink:href="#busy-1-SVGID_3_" overflow="visible" id="busy-1-use31"/></clipPath><path clip-path="url(#busy-1-SVGID_4_)" d="M19.5,29c-0.276,0-0.5-0.224-0.5-0.5V19c0-0.276,0.224-0.5,0.5-0.5S20,18.724,20,19v9.5   C20,28.776,19.776,29,19.5,29z" id="busy-1-path33" style=""/></g><path opacity="0.1" d="M24.511,10.5c-0.964,0-1.871-0.513-2.368-1.34c-0.379-0.633-0.489-1.374-0.31-2.087  c0.178-0.71,0.623-1.309,1.252-1.684c1.254-0.75,3.019-0.299,3.771,0.953c0.379,0.629,0.49,1.368,0.312,2.08  s-0.622,1.312-1.251,1.689C25.491,10.365,25.005,10.5,24.511,10.5z M24.49,6c-0.313,0-0.621,0.085-0.891,0.247  c-0.4,0.238-0.682,0.618-0.795,1.069C22.689,7.77,22.759,8.242,23,8.645c0.484,0.805,1.597,1.092,2.403,0.608  c0.4-0.24,0.682-0.621,0.795-1.073s0.042-0.922-0.199-1.323C25.677,6.32,25.113,6,24.49,6z" id="busy-1-path35"/><path opacity="0.1" d="M28.5,21c-0.276,0-0.5-0.224-0.5-0.5v-6c0-0.827-0.673-1.5-1.5-1.5H26c-0.276,0-0.5-0.224-0.5-0.5  S25.724,12,26,12h0.5c1.378,0,2.5,1.122,2.5,2.5v6C29,20.776,28.776,21,28.5,21z" id="busy-1-path37"/><g opacity="0.1" id="busy-1-g39"><defs id="busy-1-defs41"><rect id="busy-1-SVGID_5_" x="21" y="20" opacity="0.1" width="6" height="10"/></defs><clipPath id="busy-1-SVGID_6_"><use xlink:href="#busy-1-SVGID_5_" overflow="visible" id="busy-1-use45"/></clipPath><path clip-path="url(#busy-1-SVGID_6_)" d="M26.5,29c-0.276,0-0.5-0.224-0.5-0.5V19c0-0.276,0.224-0.5,0.5-0.5S27,18.724,27,19v9.5   C27,28.776,26.776,29,26.5,29z" id="busy-1-path47"/></g></symbol><symbol viewBox="0 0 35 35" id="icon-busy-2"><title>busy-2</title> <path d="M10.511,10.5c-0.963,0-1.871-0.513-2.368-1.34c-0.379-0.633-0.489-1.374-0.31-2.087c0.178-0.71,0.623-1.309,1.252-1.684  c1.253-0.75,3.02-0.299,3.771,0.953c0.379,0.629,0.49,1.368,0.312,2.08s-0.621,1.311-1.25,1.689  C11.492,10.365,11.005,10.5,10.511,10.5z M10.49,6c-0.313,0-0.621,0.085-0.891,0.247c-0.4,0.238-0.682,0.618-0.795,1.069  C8.689,7.77,8.759,8.242,9,8.645c0.483,0.805,1.595,1.092,2.404,0.608c0.399-0.24,0.681-0.621,0.794-1.073s0.042-0.922-0.199-1.323  C11.677,6.32,11.113,6,10.49,6z"/> <path d="M14.5,20.5c-0.276,0-0.5-0.224-0.5-0.5v-5.5c0-0.827-0.673-1.5-1.5-1.5H12c-0.276,0-0.5-0.224-0.5-0.5S11.724,12,12,12h0.5  c1.378,0,2.5,1.122,2.5,2.5V20C15,20.276,14.776,20.5,14.5,20.5z"/> <path d="M6.5,20.5C6.224,20.5,6,20.276,6,20v-5.5C6,13.122,7.122,12,8.5,12H9c0.276,0,0.5,0.224,0.5,0.5S9.276,13,9,13H8.5  C7.673,13,7,13.673,7,14.5V20C7,20.276,6.776,20.5,6.5,20.5z"/> <g>  <clipPath id="busy-2-SVGID_2_"> <use xlink:href="#busy-2-SVGID_1_" overflow="visible"/> </clipPath> <path clip-path="url(#busy-2-SVGID_2_)" d="M12.5,29c-0.276,0-0.5-0.224-0.5-0.5V19c0-0.276,0.224-0.5,0.5-0.5S13,18.724,13,19v9.5   C13,28.776,12.776,29,12.5,29z"/> <path clip-path="url(#busy-2-SVGID_2_)" d="M8.5,29C8.224,29,8,28.776,8,28.5V19c0-0.276,0.224-0.5,0.5-0.5S9,18.724,9,19v9.5   C9,28.776,8.776,29,8.5,29z"/> </g> <path d="M17.511,10.5c-0.964,0-1.871-0.513-2.368-1.34c-0.379-0.633-0.489-1.374-0.31-2.087c0.178-0.71,0.623-1.309,1.252-1.684  c1.253-0.75,3.02-0.299,3.771,0.953c0.379,0.629,0.49,1.368,0.312,2.08s-0.622,1.312-1.251,1.689  C18.491,10.365,18.005,10.5,17.511,10.5z M17.49,6c-0.313,0-0.621,0.085-0.891,0.247c-0.4,0.238-0.682,0.618-0.795,1.069  C15.689,7.77,15.759,8.242,16,8.645c0.484,0.805,1.596,1.092,2.403,0.608c0.4-0.24,0.682-0.621,0.795-1.073s0.042-0.922-0.199-1.323  C18.677,6.32,18.113,6,17.49,6z"/> <path d="M21.5,21c-0.276,0-0.5-0.224-0.5-0.5v-6c0-0.827-0.673-1.5-1.5-1.5H19c-0.276,0-0.5-0.224-0.5-0.5S18.724,12,19,12h0.5  c1.378,0,2.5,1.122,2.5,2.5v6C22,20.776,21.776,21,21.5,21z"/> <g> <defs> <rect id="busy-2-SVGID_3_" x="14" y="20" width="6" height="10"/> </defs> <clipPath id="busy-2-SVGID_4_"> <use xlink:href="#busy-2-SVGID_3_" overflow="visible"/> </clipPath> <path clip-path="url(#busy-2-SVGID_4_)" d="M19.5,29c-0.276,0-0.5-0.224-0.5-0.5V19c0-0.276,0.224-0.5,0.5-0.5S20,18.724,20,19v9.5   C20,28.776,19.776,29,19.5,29z"/> </g> <path opacity="0.1" d="M24.511,10.5c-0.964,0-1.871-0.513-2.368-1.34c-0.379-0.633-0.489-1.374-0.31-2.087  c0.178-0.71,0.623-1.309,1.252-1.684c1.254-0.75,3.019-0.299,3.771,0.953c0.379,0.629,0.49,1.368,0.312,2.08  s-0.622,1.312-1.251,1.689C25.491,10.365,25.005,10.5,24.511,10.5z M24.49,6c-0.313,0-0.621,0.085-0.891,0.247  c-0.4,0.238-0.682,0.618-0.795,1.069C22.689,7.77,22.759,8.242,23,8.645c0.484,0.805,1.597,1.092,2.403,0.608  c0.4-0.24,0.682-0.621,0.795-1.073s0.042-0.922-0.199-1.323C25.677,6.32,25.113,6,24.49,6z"/> <path opacity="0.1" d="M28.5,21c-0.276,0-0.5-0.224-0.5-0.5v-6c0-0.827-0.673-1.5-1.5-1.5H26c-0.276,0-0.5-0.224-0.5-0.5  S25.724,12,26,12h0.5c1.378,0,2.5,1.122,2.5,2.5v6C29,20.776,28.776,21,28.5,21z"/> <g opacity="0.1"> <defs> <rect id="busy-2-SVGID_5_" x="21" y="20" opacity="0.1" width="6" height="10"/> </defs> <clipPath id="busy-2-SVGID_6_"> <use xlink:href="#busy-2-SVGID_5_" overflow="visible"/> </clipPath> <path clip-path="url(#busy-2-SVGID_6_)" d="M26.5,29c-0.276,0-0.5-0.224-0.5-0.5V19c0-0.276,0.224-0.5,0.5-0.5S27,18.724,27,19v9.5   C27,28.776,26.776,29,26.5,29z"/> </g> </symbol><symbol viewBox="0 0 35 35" id="icon-busy-3"><title>busy-3</title> <path d="M10.511,10.5c-0.963,0-1.871-0.513-2.368-1.34c-0.379-0.633-0.489-1.374-0.31-2.087c0.178-0.71,0.623-1.309,1.252-1.684  c1.254-0.75,3.019-0.299,3.771,0.953c0.379,0.629,0.49,1.368,0.312,2.08s-0.621,1.311-1.25,1.689  C11.492,10.365,11.005,10.5,10.511,10.5z M10.49,6c-0.313,0-0.621,0.085-0.891,0.247c-0.4,0.238-0.682,0.618-0.795,1.069  C8.689,7.77,8.759,8.242,9,8.645c0.483,0.805,1.595,1.092,2.404,0.608c0.399-0.24,0.681-0.621,0.794-1.073s0.042-0.922-0.199-1.323  C11.677,6.32,11.113,6,10.49,6z"/> <path d="M14.5,20.5c-0.276,0-0.5-0.224-0.5-0.5v-5.5c0-0.827-0.673-1.5-1.5-1.5H12c-0.276,0-0.5-0.224-0.5-0.5S11.724,12,12,12h0.5  c1.378,0,2.5,1.122,2.5,2.5V20C15,20.276,14.776,20.5,14.5,20.5z"/> <path d="M6.5,20.5C6.224,20.5,6,20.276,6,20v-5.5C6,13.122,7.122,12,8.5,12H9c0.276,0,0.5,0.224,0.5,0.5S9.276,13,9,13H8.5  C7.673,13,7,13.673,7,14.5V20C7,20.276,6.776,20.5,6.5,20.5z"/> <g>  <clipPath id="busy-3-SVGID_2_"> <use xlink:href="#busy-3-SVGID_1_" overflow="visible"/> </clipPath> <path clip-path="url(#busy-3-SVGID_2_)" d="M12.5,29c-0.276,0-0.5-0.224-0.5-0.5V19c0-0.276,0.224-0.5,0.5-0.5S13,18.724,13,19v9.5   C13,28.776,12.776,29,12.5,29z"/> <path clip-path="url(#busy-3-SVGID_2_)" d="M8.5,29C8.224,29,8,28.776,8,28.5V19c0-0.276,0.224-0.5,0.5-0.5S9,18.724,9,19v9.5   C9,28.776,8.776,29,8.5,29z"/> </g> <path d="M17.511,10.5c-0.963,0-1.871-0.513-2.368-1.34c-0.379-0.633-0.489-1.374-0.31-2.087c0.179-0.71,0.623-1.309,1.252-1.684  c1.253-0.75,3.02-0.299,3.771,0.953c0.379,0.629,0.49,1.368,0.312,2.08s-0.622,1.312-1.251,1.689  C18.491,10.365,18.005,10.5,17.511,10.5z M17.49,6c-0.313,0-0.621,0.085-0.891,0.247c-0.4,0.238-0.682,0.618-0.795,1.069  C15.689,7.77,15.759,8.242,16,8.645c0.485,0.803,1.597,1.091,2.403,0.607c0.4-0.24,0.682-0.621,0.795-1.073s0.042-0.922-0.199-1.323  C18.677,6.32,18.113,6,17.49,6z"/> <path d="M21.5,21c-0.276,0-0.5-0.224-0.5-0.5v-6c0-0.827-0.673-1.5-1.5-1.5H19c-0.276,0-0.5-0.224-0.5-0.5S18.724,12,19,12h0.5  c1.378,0,2.5,1.122,2.5,2.5v6C22,20.776,21.776,21,21.5,21z"/> <g> <defs> <rect id="busy-3-SVGID_3_" x="14" y="20" width="6" height="10"/> </defs> <clipPath id="busy-3-SVGID_4_"> <use xlink:href="#busy-3-SVGID_3_" overflow="visible"/> </clipPath> <path clip-path="url(#busy-3-SVGID_4_)" d="M19.5,29c-0.276,0-0.5-0.224-0.5-0.5V19c0-0.276,0.224-0.5,0.5-0.5S20,18.724,20,19v9.5   C20,28.776,19.776,29,19.5,29z"/> </g> <path d="M24.511,10.5c-0.963,0-1.871-0.513-2.368-1.34c-0.379-0.633-0.489-1.374-0.31-2.087c0.179-0.71,0.623-1.309,1.252-1.684  c1.253-0.75,3.019-0.299,3.771,0.953c0.379,0.629,0.49,1.368,0.312,2.08s-0.622,1.312-1.251,1.689  C25.491,10.365,25.005,10.5,24.511,10.5z M24.49,6c-0.313,0-0.621,0.085-0.891,0.247c-0.4,0.238-0.682,0.618-0.795,1.069  C22.689,7.77,22.759,8.242,23,8.645c0.485,0.803,1.597,1.091,2.403,0.607c0.4-0.24,0.682-0.621,0.795-1.073s0.042-0.922-0.199-1.323  C25.677,6.32,25.113,6,24.49,6z"/> <path d="M28.5,21c-0.276,0-0.5-0.224-0.5-0.5v-6c0-0.827-0.673-1.5-1.5-1.5H26c-0.276,0-0.5-0.224-0.5-0.5S25.724,12,26,12h0.5  c1.378,0,2.5,1.122,2.5,2.5v6C29,20.776,28.776,21,28.5,21z"/> <g> <defs> <rect id="busy-3-SVGID_5_" x="21" y="20" width="6" height="10"/> </defs> <clipPath id="busy-3-SVGID_6_"> <use xlink:href="#busy-3-SVGID_5_" overflow="visible"/> </clipPath> <path clip-path="url(#busy-3-SVGID_6_)" d="M26.5,29c-0.276,0-0.5-0.224-0.5-0.5V19c0-0.276,0.224-0.5,0.5-0.5S27,18.724,27,19v9.5   C27,28.776,26.776,29,26.5,29z"/> </g> </symbol><symbol viewBox="0 0 35 35" id="icon-car"><title>car</title> <g> <path d="M26.5,15h-1.357l-1.751-4.085C23.179,10.417,22.554,10,22.004,10h-9.009c-0.551,0-1.171,0.41-1.388,0.915L9.857,15H8.5   C8.224,15,8,15.224,8,15.5S8.224,16,8.5,16h0.929H10.5h0.017l2.01-4.691C12.586,11.171,12.845,11,12.996,11h9.009   c0.146,0,0.411,0.175,0.469,0.309L24.483,16H24.5h1.071H26.5c0.276,0,0.5-0.224,0.5-0.5S26.776,15,26.5,15z"/> <path d="M25.5,17H25l-2,2h2v3c0-0.001-15,0-15,0c-0.003,0,0-3,0-3h2.001L10,17H9.5C9.224,17,9,17.224,9,17.5v4.497   C9,22.562,9.448,23,10,23h0v1.5c0,0.276,0.224,0.5,0.5,0.5h1c0.276,0,0.5-0.224,0.5-0.5V23h11v1.5c0,0.276,0.224,0.5,0.5,0.5h1   c0.276,0,0.5-0.224,0.5-0.5V23h0c0.545,0,1-0.449,1-1.003V17.5C26,17.224,25.776,17,25.5,17z"/> <rect x="14" y="18" width="7" height="1"/> <polygon points="22,15 13,15 12,16 23,16  "/> <rect x="15" y="20" width="5" height="1"/> </g> </symbol><symbol viewBox="0 0 35 35" id="icon-cart"><title>cart</title> <circle cx="22.006" cy="26.749" r="1.25"/> <circle cx="13" cy="26.749" r="1.25"/> <path d="M26.389,13.185C26.294,13.068,26.151,13,26,13H12c-0.276,0-0.5,0.224-0.5,0.5S11.724,14,12,14h13.381l-1.286,6H10.923  L8.827,7.418C8.787,7.176,8.578,7,8.333,7H5C4.724,7,4.5,7.223,4.5,7.5S4.724,8,5,8h2.91l2.097,12.582v0v0l0.5,3  C10.547,23.823,10.755,24,11,24h13c0.276,0,0.5-0.224,0.5-0.5S24.276,23,24,23H11.423l-0.333-2H24.5  c0.236,0,0.439-0.165,0.489-0.395l1.5-7C26.521,13.456,26.484,13.303,26.389,13.185z"/> </symbol><symbol viewBox="0 0 35 35" id="icon-cartFilled"><title>cartFilled</title> <circle cx="22" cy="26.7" r="1.2"/> <circle cx="13" cy="26.7" r="1.2"/> <path d="M26.1,13c-0.3-0.1-0.5,0.1-0.6,0.4L24.1,20H10.9L8.8,7.4C8.8,7.2,8.6,7,8.3,7H5C4.7,7,4.5,7.2,4.5,7.5S4.7,8,5,8h2.9  L10,20.6l0,0l0,0l0.5,3c0,0.2,0.2,0.4,0.5,0.4h13c0.3,0,0.5-0.2,0.5-0.5S24.3,23,24,23H11.4l-0.3-2h13.4c0.2,0,0.4-0.2,0.5-0.4  l1.5-7C26.5,13.3,26.4,13.1,26.1,13z"/> </symbol><symbol viewBox="0 0 35 35" id="icon-cartFilledLarge"><title>cartFilledLarge</title> <circle cx="29.006" cy="26.749" r="1.25"/> <circle cx="8.5" cy="26.749" r="1.25"/> <path d="M32.605,13.01c-0.273-0.062-0.536,0.115-0.594,0.384L30.596,20H6.423L4.327,7.418C4.287,7.176,4.078,7,3.833,7H0.5  C0.224,7,0,7.223,0,7.5S0.224,8,0.5,8h2.91l2.097,12.582v0v0l0.5,3C6.047,23.823,6.255,24,6.5,24h24c0.276,0,0.5-0.224,0.5-0.5  S30.776,23,30.5,23H6.923L6.59,21H31c0.236,0,0.439-0.165,0.489-0.395l1.5-7C33.047,13.334,32.875,13.068,32.605,13.01z"/> </symbol><symbol viewBox="0 0 35 35" id="icon-cartFilledMedium"><title>cartFilledMedium</title> <circle cx="24.006" cy="26.749" r="1.25"/> <circle cx="11" cy="26.749" r="1.25"/> <path d="M28.105,13.01c-0.273-0.062-0.536,0.115-0.594,0.384L26.096,20H8.923L6.827,7.418C6.787,7.176,6.578,7,6.333,7H3  C2.724,7,2.5,7.223,2.5,7.5S2.724,8,3,8h2.91l2.097,12.582v0v0l0.5,3C8.547,23.823,8.755,24,9,24h17c0.276,0,0.5-0.224,0.5-0.5  S26.276,23,26,23H9.423L9.09,21H26.5c0.236,0,0.439-0.165,0.489-0.395l1.5-7C28.547,13.334,28.375,13.068,28.105,13.01z"/> </symbol><symbol viewBox="0 0 50 50" id="icon-chat"><title>chat</title> <g> <path d="M29.85,15.63v0.04H19.9c-5.18,0-8.97,3.34-8.97,8.52c0,5.18,3.79,8.55,8.97,8.55h8.93l10.23,5.63V23.84h0.02   C38.89,18.82,34.91,15.63,29.85,15.63z M37.46,25.03v10.31l-7.73-4.29c-0.31-0.15-0.79,0-1.14,0H19.9c-3.89,0-7.28-3.03-7.28-6.92   c0-3.89,3.4-6.85,7.28-6.85h9.95c3.8,0,7.47,2.83,7.62,6.64L37.46,25.03z M20.72,23.25c-0.74,0-1.34,0.6-1.34,1.34   c0,0.74,0.6,1.34,1.34,1.34c0.74,0,1.34-0.6,1.34-1.34C22.06,23.85,21.46,23.25,20.72,23.25z M25.02,23.25   c-0.74,0-1.34,0.6-1.34,1.34c0,0.74,0.6,1.34,1.34,1.34c0.74,0,1.34-0.6,1.34-1.34C26.36,23.85,25.76,23.25,25.02,23.25z    M29.29,23.25c-0.74,0-1.34,0.6-1.34,1.34c0,0.74,0.6,1.34,1.34,1.34c0.74,0,1.34-0.6,1.34-1.34   C30.63,23.85,30.03,23.25,29.29,23.25z"/> </g> </symbol><symbol viewBox="0 0 57 57" id="icon-checkmark-circle"><title>Group</title><desc>Created with Sketch.</desc>   <g> <path d="M28.5,0C12.76,0,0,12.76,0,28.5C0,44.24,12.76,57,28.5,57S57,44.24,57,28.5C57,12.76,44.24,0,28.5,0z   M20.062,42.275l-6.27-12.16c-0.57-0.95-0.19-2.09,0.76-2.47c0.95-0.57,2.09-0.19,2.47,0.76l4.75,9.31l22.419-22.42  c0.381-0.38,0.951-0.38,1.33,0c0.19,0.38,0.19,1.14,0.19,1.33L20.062,42.275z"/> </g> </symbol><symbol viewBox="0 0 35 35" id="icon-checkmark"><title>checkmark</title> <g> <path d="M26.9,9.6c-0.2-0.2-0.5-0.2-0.7,0L14.4,21.4l-2.5-4.9c-0.2-0.5-0.8-0.7-1.3-0.4c-0.5,0.2-0.7,0.8-0.4,1.3l3.3,6.4v0v0  l13.5-13.5C27,10.2,27,9.8,26.9,9.6z"/> </g> </symbol><symbol viewBox="0 -5 35 45" id="icon-chevron-down-medium-mask"><title>chevron-down-medium-mask</title> <g> <path d="M0-5v45h35V-5H0z M23,16.2l-5.5,5.5L12,16.2v-1.4l5.5,5.5l5.5-5.5V16.2z"/> </g> </symbol><symbol viewBox="0 0 35 35" id="icon-chevron-down-medium"><title>chevron-down-medium</title> <g> <g> <polygon points="17.5,20.3 12,14.8 12,16.2 17.5,21.7 23,16.2 23,14.8   "/> </g> </g> </symbol><symbol viewBox="0 0 75 75" id="icon-children"><title>children</title> <g> <g> <path d="M29.435,25.857c-1.496,0-2.958-0.763-3.785-2.136c-0.605-1.01-0.78-2.192-0.494-3.331    c0.284-1.133,0.994-2.087,1.998-2.686c2.068-1.238,4.769-0.558,6.017,1.52l0,0c0.604,1.005,0.782,2.184,0.499,3.319    c-0.282,1.135-0.991,2.092-1.995,2.695C30.973,25.658,30.199,25.857,29.435,25.857z M29.391,18.085    c-0.589,0-1.185,0.154-1.725,0.477c-0.774,0.462-1.321,1.197-1.541,2.071c-0.222,0.879-0.086,1.792,0.382,2.572    c0.965,1.604,3.055,2.132,4.652,1.175c0.774-0.465,1.321-1.203,1.539-2.079c0.219-0.876,0.081-1.786-0.386-2.562v0    C31.675,18.676,30.545,18.085,29.391,18.085z"/> </g> <g> <path d="M36.5,43.5c-0.276,0-0.5-0.224-0.5-0.5V32c0-1.598-1.471-3-3.146-3H32c-0.276,0-0.5-0.224-0.5-0.5S31.724,28,32,28h0.854    C35.062,28,37,29.869,37,32v11C37,43.276,36.776,43.5,36.5,43.5z"/> </g> <g> <path d="M22.5,43.5c-0.276,0-0.5-0.224-0.5-0.5V32c0-2.206,1.768-4,3.94-4H27c0.276,0,0.5,0.224,0.5,0.5S27.276,29,27,29h-1.06    C24.319,29,23,30.346,23,32v11C23,43.276,22.776,43.5,22.5,43.5z"/> </g> <g> <path d="M49.5,47.5c-0.276,0-0.5-0.224-0.5-0.5v-7c0-1.243-0.761-2.016-1.984-2.016c-0.276,0-0.5-0.224-0.5-0.5s0.224-0.5,0.5-0.5    C48.801,36.984,50,38.196,50,40v7C50,47.276,49.776,47.5,49.5,47.5z"/> </g> <g> <path d="M40.5,47.5c-0.276,0-0.5-0.224-0.5-0.5v-7c0-1.804,1.193-3.016,2.969-3.016c0.276,0,0.5,0.224,0.5,0.5s-0.224,0.5-0.5,0.5    C41.736,37.984,41,38.738,41,40v7C41,47.276,40.776,47.5,40.5,47.5z"/> </g> <g> <path d="M33,43v15c0,0.276,0.224,0.5,0.5,0.5S34,58.276,34,58V43H33z"/> <path d="M25.5,58.5c0.276,0,0.5-0.224,0.5-0.5V43h-1v15C25,58.276,25.224,58.5,25.5,58.5z"/> <path d="M47,47v11c0,0.276,0.224,0.5,0.5,0.5S48,58.276,48,58V47H47z"/> <path d="M42.5,58.5c0.276,0,0.5-0.224,0.5-0.5V47h-1v11C42,58.276,42.224,58.5,42.5,58.5z"/> </g> <g> <path d="M45,36c-1.93,0-3.5-1.57-3.5-3.5S43.07,29,45,29s3.5,1.57,3.5,3.5S46.93,36,45,36z M45,30c-1.379,0-2.5,1.122-2.5,2.5    S43.621,35,45,35s2.5-1.122,2.5-2.5S46.379,30,45,30z"/> </g> </g> </symbol><symbol viewBox="0 0 35 35" id="icon-clock-small"><title>clock-small</title> <g> <g> <g> <path d="M17.5,24.5c-3.86,0-7-3.14-7-7s3.14-7,7-7s7,3.14,7,7S21.36,24.5,17.5,24.5z M17.5,11.4c-3.308,0-6,2.737-6,6.1     s2.692,6.1,6,6.1s6-2.737,6-6.1S20.808,11.4,17.5,11.4z"/> </g> </g> <path d="M17.5,12.5L17.5,12.5c-0.276,0-0.5,0.224-0.5,0.5v5h1v-5C18,12.724,17.776,12.5,17.5,12.5z"/> <path d="M20.164,20.493l0.036-0.036c0.185-0.185,0.185-0.486,0-0.671l-2.493-2.493L17,18l2.493,2.493   C19.678,20.678,19.979,20.678,20.164,20.493z"/> </g> </symbol><symbol viewBox="0 0 35 35" id="icon-clock_rood"><title>clock_rood</title> <g> <rect x="2" y="3" width="31" height="29"/> </g> <g> <g> <path fill="#DB0029" d="M17.5,27.5c-5.514,0-10-4.486-10-10s4.486-10,10-10s10,4.486,10,10S23.014,27.5,17.5,27.5z M17.5,8.5    c-4.962,0-9,4.038-9,9s4.038,9,9,9s9-4.038,9-9S22.462,8.5,17.5,8.5z"/> </g> </g> <g> <g> <path fill="#DB0029" d="M21,21.5c-0.128,0-0.256-0.049-0.354-0.146L17,17.707V11c0-0.276,0.224-0.5,0.5-0.5S18,10.724,18,11v6.293    l3.354,3.354c0.195,0.195,0.195,0.512,0,0.707C21.256,21.451,21.128,21.5,21,21.5z"/> </g> </g> </symbol><symbol viewBox="0 0 35 35" id="icon-close"><title>close</title> <g> <g> <path d="M24.5,25c-0.128,0-0.256-0.049-0.354-0.146l-14-14c-0.195-0.195-0.195-0.512,0-0.707s0.512-0.195,0.707,0l14,14    c0.195,0.195,0.195,0.512,0,0.707C24.756,24.951,24.628,25,24.5,25z"/> </g> </g> <g> <g> <path d="M10.5,25c-0.128,0-0.256-0.049-0.354-0.146c-0.195-0.195-0.195-0.512,0-0.707l14-14c0.195-0.195,0.512-0.195,0.707,0    s0.195,0.512,0,0.707l-14,14C10.756,24.951,10.628,25,10.5,25z"/> </g> </g> </symbol><symbol viewBox="0 0 35 35" id="icon-close_rood"><title>close_rood</title> <g> <rect x="2" y="3" width="31" height="29"/> </g> <g> <g> <path fill="#DB0029" d="M24.5,25c-0.128,0-0.256-0.049-0.354-0.146l-14-14c-0.195-0.195-0.195-0.512,0-0.707s0.512-0.195,0.707,0    l14,14c0.195,0.195,0.195,0.512,0,0.707C24.756,24.951,24.628,25,24.5,25z"/> </g> </g> <g> <g> <path fill="#DB0029" d="M10.5,25c-0.128,0-0.256-0.049-0.354-0.146c-0.195-0.195-0.195-0.512,0-0.707l14-14    c0.195-0.195,0.512-0.195,0.707,0s0.195,0.512,0,0.707l-14,14C10.756,24.951,10.628,25,10.5,25z"/> </g> </g> </symbol><symbol viewBox="0 0 75 75" id="icon-crossborder"><title>crossborder</title> <g> <path d="M56.583,38.167c-1.687,0-3.08,1.226-3.358,2.833H39.941c-0.278-1.607-1.672-2.833-3.358-2.833         c-1.887,0-3.417,1.53-3.417,3.417c0,0.721,0.225,1.387,0.606,1.938l-10.251,10.25c-0.551-0.379-1.217-0.605-1.937-0.605         c-1.887,0-3.417,1.529-3.417,3.417S19.696,60,21.583,60S25,58.471,25,56.583c0-0.806-0.29-1.536-0.756-2.12l10.22-10.22         C35.047,44.71,35.778,45,36.583,45c1.744,0,3.167-1.312,3.375-3h13.251c0.208,1.688,1.63,3,3.375,3C58.471,45,60,43.471,60,41.583         S58.471,38.167,56.583,38.167z M21.583,59c-1.333,0-2.417-1.084-2.417-2.417s1.084-2.417,2.417-2.417S24,55.25,24,56.583         S22.916,59,21.583,59z M36.583,44c-1.333,0-2.417-1.084-2.417-2.417s1.084-2.417,2.417-2.417S39,40.25,39,41.583         S37.916,44,36.583,44z M56.583,44c-1.333,0-2.417-1.084-2.417-2.417s1.084-2.417,2.417-2.417S59,40.25,59,41.583         S57.916,44,56.583,44z"/> <path d="M25.742,40.12c-0.09-0.077-0.206-0.12-0.325-0.12h-5c-0.148,0-0.289,0.064-0.384,0.18l-0.417,0.5         c-0.177,0.213-0.148,0.527,0.063,0.704C19.773,41.462,19.887,41.5,20,41.5c0.143,0,0.285-0.062,0.384-0.18L20.651,41h4.581         l0.442,0.38c0.208,0.179,0.524,0.155,0.705-0.055c0.18-0.209,0.155-0.525-0.055-0.705L25.742,40.12z"/> <path d="M25,43.5c0.128,0,0.256-0.049,0.354-0.146c0.195-0.194,0.195-0.512,0-0.707l-0.5-0.5C24.76,42.053,24.633,42,24.5,42h-6         c-0.133,0-0.26,0.053-0.354,0.146l-0.5,0.5c-0.195,0.194-0.195,0.512,0,0.707c0.195,0.194,0.512,0.194,0.707,0L18.707,43h5.586         l0.354,0.354C24.744,43.451,24.872,43.5,25,43.5z"/> <path d="M23.5,44h-6c-0.133,0-0.26,0.053-0.354,0.146l-0.5,0.5c-0.195,0.194-0.195,0.512,0,0.707c0.195,0.194,0.512,0.194,0.707,0         L17.707,45h5.586l0.354,0.354C23.744,45.451,23.872,45.5,24,45.5s0.256-0.049,0.354-0.146c0.195-0.194,0.195-0.512,0-0.707l-0.5-0.5         C23.76,44.053,23.633,44,23.5,44z"/> <path d="M15.646,48.354C15.744,48.451,15.872,48.5,16,48.5s0.256-0.049,0.354-0.146c0.195-0.194,0.195-0.512,0-0.707L16.207,47.5         l0.5-0.5h5.586l0.354,0.354c0.195,0.195,0.512,0.195,0.707,0c0.195-0.194,0.195-0.512,0-0.707l-0.5-0.5         C22.76,46.053,22.633,46,22.5,46h-6c-0.133,0-0.26,0.053-0.354,0.146l-1,1c-0.195,0.194-0.195,0.512,0,0.707L15.646,48.354z"/> <path d="M37,53.293l-0.854,0.854c-0.195,0.195-0.195,0.513,0,0.707l1,1C37.24,55.947,37.367,56,37.5,56h3         c0.133,0,0.26-0.053,0.354-0.146l1-1C41.947,54.76,42,54.633,42,54.5v-3c0-0.133-0.053-0.26-0.146-0.354L41.207,50.5l1.646-1.646         C42.947,48.76,43,48.633,43,48.5V44h-1v4.293l-1.854,1.854c-0.195,0.195-0.195,0.513,0,0.707L41,51.707v2.586L40.293,55h-2.586         l-0.5-0.5l0.646-0.646C37.947,53.76,38,53.633,38,53.5v-4c0-0.133-0.053-0.26-0.146-0.354l-2.352-2.353h-0.001         c-0.031,0.031-0.301,0.302-0.707,0.706L37,49.707V53.293z"/> <path d="M45.512,38.781h1.414l2.928-2.928C49.947,35.76,50,35.633,50,35.5v-4c0-0.133-0.053-0.26-0.146-0.354L48.207,29.5         l1.646-1.646C49.947,27.76,50,27.633,50,27.5v-2.793l0.854-0.854C50.947,23.76,51,23.633,51,23.5v-4c0-0.133-0.053-0.26-0.146-0.354         l-2-2C48.76,17.053,48.633,17,48.5,17h-10c-0.133,0-0.26,0.053-0.354,0.146l-3,3C35.053,20.24,35,20.367,35,20.5v4         c0,0.133,0.053,0.26,0.146,0.354L37,26.707v0.588L33.341,31H32v-3.293l0.854-0.854c0.195-0.195,0.195-0.512,0-0.707l-2-2         C30.76,24.053,30.633,24,30.5,24h-3c-0.276,0-0.5,0.224-0.5,0.5v6.793l-5.854,5.854C21.053,37.24,21,37.367,21,37.5v1         c0,0.275,0.224,0.5,0.5,0.5s0.5-0.225,0.5-0.5v-0.793l5.854-5.854C27.947,31.76,28,31.633,28,31.5V25h2.293l1.5,1.5l-0.646,0.646         C31.053,27.24,31,27.367,31,27.5v4c0,0.276,0.224,0.5,0.5,0.5h2.05c0.134,0,0.262-0.054,0.355-0.148l3.95-4         C37.948,27.758,38,27.632,38,27.5v-1c0-0.133-0.053-0.26-0.146-0.354L36,24.293v-3.586L38.707,18h9.586L50,19.707v3.586         l-0.854,0.854C49.053,24.24,49,24.367,49,24.5v2.793l-1.854,1.854c-0.195,0.195-0.195,0.512,0,0.707L49,31.707v3.586L45.512,38.781z         "/> <path d="M18.5,49c-0.276,0-0.5,0.225-0.5,0.5s0.224,0.5,0.5,0.5h5.263c0.266-0.266,0.605-0.605,0.998-1H18.5z"/> <path d="M30.239,21c0.276,0,0.5-0.224,0.5-0.5s-0.224-0.5-0.5-0.5h-0.857c-0.133,0-0.26,0.126-0.354,0.22l-0.857,0.931         c-0.195,0.195-0.195,0.512,0,0.707l0.857,0.857c0.098,0.098,0.226,0.146,0.354,0.146s0.256-0.067,0.354-0.165         c0.195-0.195,0.195-0.53,0-0.725l-0.504-0.541L29.589,21H30.239z"/> <path d="M31.854,17.146c-0.195-0.195-0.512-0.195-0.707,0l-1.5,1.5c-0.195,0.195-0.195,0.512,0,0.707         C29.744,19.451,29.872,19.5,30,19.5s0.256-0.049,0.354-0.146l1.5-1.5C32.049,17.658,32.049,17.342,31.854,17.146z"/> <path d="M35.314,15.036l-2.5,1c-0.257,0.103-0.381,0.394-0.278,0.649C32.614,16.881,32.802,17,33,17         c0.062,0,0.125-0.012,0.186-0.036l2.5-1c0.257-0.103,0.381-0.394,0.278-0.649S35.57,14.933,35.314,15.036z"/> <path d="M38,15c-0.276,0-0.5,0.224-0.5,0.5S37.724,16,38,16h1c0.275,0,0.5-0.224,0.5-0.5S39.275,15,39,15H38z"/> <path d="M42,15c-0.275,0-0.5,0.224-0.5,0.5S41.725,16,42,16h1c0.275,0,0.5-0.224,0.5-0.5S43.275,15,43,15H42z"/> </g> </symbol><symbol viewBox="0 0 75 75" id="icon-discount-dates"><title>discount-dates</title> <g> <path d="M56.998,34.172v25.831H16.999v1h40.999V33.558C57.68,33.778,57.346,33.982,56.998,34.172z"/> <rect x="22.999" y="30.001" width="2" height="2"/> <rect x="30.999" y="30.001" width="2" height="2"/> <rect x="37.999" y="30.001" width="2" height="2"/> <rect x="30.999" y="37.001" width="2" height="2"/> <rect x="37.999" y="37.001" width="2" height="2"/> <rect x="45.998" y="37.001" width="2" height="2"/> <rect x="22.999" y="44.003" width="2" height="2"/> <rect x="30.999" y="44.003" width="2" height="2"/> <rect x="45.998" y="44.003" width="2" height="2"/> <rect x="22.999" y="51.003" width="2" height="2"/> <rect x="30.999" y="51.003" width="2" height="2"/> <rect x="37.999" y="51.003" width="2" height="2"/> <path d="M26.999,35.001h-6v6.001h6V35.001z M24.999,39.002h-2v-2h2V39.002z"/> <path d="M41.998,42.003h-5.999v6h5.999V42.003z M39.998,46.003h-2v-2h2V46.003z"/> <path d="M22.999,19.001v3h-8v37.001h40.999V34.658c-0.326,0.14-0.659,0.266-1,0.379v22.965H15.999V23.001h7v2c0,0.553,0.447,1,1,1   s1-0.447,1-1v-2h14.478c0.026-0.338,0.062-0.671,0.112-1h-14.59v-3c0-0.553-0.447-1-1-1S22.999,18.448,22.999,19.001z"/> <path d="M60.326,24.356l0.723-1.792l-1.299-1.441l0.054-1.928l-1.72-0.915l-0.613-1.826l-1.932-0.283l-1.213-1.509l-1.91,0.388         l-1.659-1.005l-1.662,1.005l-1.913-0.388l-1.211,1.509l-1.932,0.283l-0.615,1.827l-1.717,0.915l0.052,1.928l-1.296,1.44         l0.72,1.792l-0.72,1.793l1.296,1.442l-0.052,1.928l1.718,0.914l0.614,1.826l1.932,0.283l1.212,1.51l1.91-0.388l1.661,1.005         l1.662-1.006l1.91,0.389l1.211-1.511l1.932-0.282l0.615-1.826l1.72-0.915l-0.054-1.927l1.297-1.443L60.326,24.356z M44.244,18.976         l0.547-1.622l1.713-0.252l1.076-1.339l1.694,0.343l1.479-0.894l1.477,0.894l1.696-0.343l1.077,1.339l1.712,0.252l0.547,1.621         l1.521,0.812l-0.045,1.707l1.146,1.275l-0.641,1.587l0.642,1.587L58.74,27.22l0.047,1.706l-1.522,0.812l-0.547,1.621l-1.712,0.251         l-1.076,1.341l-1.695-0.346l-1.479,0.896l-1.479-0.894l-1.695,0.343l-1.077-1.34l-1.712-0.252l-0.547-1.621l-1.522-0.811         l0.046-1.707l-1.146-1.275l0.638-1.588l-0.638-1.587l1.146-1.274l-0.046-1.707"/> <path d="M46.625,21.857c0,0.779,0.634,1.412,1.412,1.412s1.412-0.633,1.412-1.412c0-0.778-0.634-1.412-1.412-1.412         S46.625,21.078,46.625,21.857z M48.979,21.857c0,0.519-0.422,0.941-0.941,0.941c-0.519,0-0.939-0.422-0.939-0.941         s0.422-0.941,0.939-0.941C48.557,20.917,48.979,21.338,48.979,21.857z"/> <path d="M53.214,25.622c-0.779,0-1.412,0.633-1.412,1.412c0,0.779,0.633,1.412,1.412,1.412c0.778,0,1.411-0.633,1.411-1.412         C54.625,26.254,53.992,25.622,53.214,25.622z M53.214,27.974c-0.519,0-0.941-0.422-0.941-0.941s0.423-0.941,0.941-0.941         c0.518,0,0.94,0.422,0.94,0.941S53.732,27.974,53.214,27.974z"/> <path d="M54.322,21.083c0.092-0.092,0.092-0.241,0-0.333c-0.093-0.092-0.242-0.092-0.334,0l-7.059,7.059         c-0.092,0.092-0.092,0.241,0,0.333c0.046,0.046,0.105,0.069,0.166,0.069s0.12-0.023,0.166-0.069L54.322,21.083z"/> </g> </symbol><symbol viewBox="0 0 75 75" id="icon-discount"><title>icon--discount</title>  <g> <path d="M58.87,37.5l1.614-4.01l-2.899-3.227l0.118-4.313l-3.846-2.05l-1.379-4.087l-4.33-0.634l-2.719-3.38l-4.281,0.86         l-3.719-2.25l-3.73,2.25l-4.28-0.87l-2.71,3.38l-4.328,0.63l-1.38,4.09l-3.843,2.05l0.116,4.31l-2.897,3.23l1.61,4.01l-1.61,4.01         l2.9,3.229l-0.12,4.311l3.85,2.05l1.376,4.08l4.324,0.63l2.716,3.381l4.277-0.867l3.726,2.25l3.721-2.256l4.279,0.871l2.711-3.381         l4.319-0.641l1.372-4.086l3.85-2.051l-0.119-4.313l2.899-3.229l-1.615-4.011L58.87,37.5z M56.688,48.458l-3.649,1.944l-1.312,3.884         l-4.104,0.603l-2.574,3.213l-4.064-0.82l-3.539,2.15l-3.54-2.141l-4.062,0.83l-2.578-3.21l-4.104-0.601l-1.31-3.886l-3.65-1.942         l0.11-4.09l-2.74-3.061l1.53-3.81l-1.52-3.807l2.75-3.06l-0.11-4.094l3.64-1.945l1.31-3.884l4.107-0.603l2.576-3.21l4.064,0.823         l3.54-2.14l3.535,2.14l4.064-0.82l2.58,3.21l4.107,0.6l1.311,3.882l3.649,1.947l-0.12,4.09l2.75,3.06l-1.529,3.802l1.529,3.805         l-2.75,3.061l0.117,4.092L56.688,48.458z"/> <path d="M31.944,35c1.654,0,3-1.345,3-3s-1.346-3-3-3c-1.654,0-3,1.347-3,3S30.29,35,31.944,35z M31.944,30c1.103,0,2,0.898,2,2         s-0.897,2-2,2s-2-0.896-2-2S30.841,30,31.944,30z M42.943,40c-1.653,0-3,1.348-3,3s1.347,3,3,3c1.654,0,3-1.346,3-3         S44.598,40,42.943,40z M42.943,45c-1.104,0-2-0.896-2-2s0.896-2,2-2s2,0.898,2,2S44.047,45,42.943,45z M45.297,29.647         c-0.195-0.195-0.512-0.195-0.707,0l-15,15c-0.195,0.195-0.195,0.514,0,0.707c0.098,0.1,0.226,0.146,0.354,0.146         s0.256-0.05,0.354-0.146l15-15C45.493,30.159,45.493,29.844,45.297,29.647L45.297,29.647z"/> </g> </symbol><symbol viewBox="0 0 50 50" id="icon-disturbances"><title>disturbances</title> <path d="M40,23.24h-9.79C29.29,18.55,25.16,15,20.2,15c-2.73,0-5.29,1.07-7.22,3C11.06,19.93,10,22.49,10,25.23     c0.01,5.62,4.59,10.2,10.21,10.2h0.01c2.73,0,5.29-1.07,7.22-3c1.45-1.45,2.4-3.26,2.79-5.24H40V23.24z M24.26,29.26     c-1.08,1.08-2.51,1.68-4.04,1.68h-0.01c-3.15,0-5.72-2.56-5.72-5.73c0-1.53,0.59-2.97,1.67-4.05c1.08-1.08,2.51-1.68,4.05-1.68     c3.15,0,5.72,2.56,5.72,5.73C25.93,26.75,25.34,28.18,24.26,29.26z"/> </symbol><symbol viewBox="-1.1 -6.2 30 79" id="icon-dot-double"><title>dot-double</title> <g id="dot-double-maantje-1"> <path d="M28.9,43.8c0,8.3-6.7,15-15,15c-8.3,0-15-6.7-15-15c0-8.3,6.7-15,15-15   C22.2,28.8,28.9,35.5,28.9,43.8z"/> <path style="fill:#FFFFFF;" d="M30,37.8c0,8.3-7.2,15-16,15s-16.1-6.7-16.1-15c0-8.3,7.2-15,16.1-15S30,29.5,30,37.8z"/> </g> <g id="dot-double-circle"> <circle cx="13.9" cy="33.8" r="15"/> <circle style="fill:#FFFFFF;" cx="13.9" cy="33.8" r="9"/> </g> </symbol><symbol viewBox="-1.1 -6.2 30 79" id="icon-dot-separated"><title>dot-separated</title> <g id="dot-separated-maantje-2" style="display:none;"> <path style="display:inline;" d="M28.9,53.8c0,8.3-6.7,15-15,15c-8.3,0-15-6.7-15-15c0-8.3,6.7-15,15-15   C22.2,38.8,28.9,45.5,28.9,53.8z"/> <path style="display:inline;fill:#FFFFFF;" d="M30,47.8c0,8.3-7.2,15-16,15s-16.1-6.7-16.1-15c0-8.3,7.2-15,16.1-15   S30,39.5,30,47.8z"/> </g> <g id="dot-separated-maantje-1" style="display:none;"> <path style="display:inline;" d="M28.9,43.8c0,8.3-6.7,15-15,15c-8.3,0-15-6.7-15-15c0-8.3,6.7-15,15-15   C22.2,28.8,28.9,35.5,28.9,43.8z"/> <path style="display:inline;fill:#FFFFFF;" d="M30,37.8c0,8.3-7.2,15-16,15s-16.1-6.7-16.1-15c0-8.3,7.2-15,16.1-15   S30,29.5,30,37.8z"/> </g> <g id="dot-separated-circle-halves"> <path d="M13.9-0.2c5,0,9,4,9,9h6c0-8.3-6.7-15-15-15s-15,6.7-15,15h6C4.9,3.8,8.9-0.2,13.9-0.2z"/> <path d="M13.9,66.8c-5,0-9-4-9-9h-6c0,8.3,6.7,15,15,15c8.3,0,15-6.7,15-15h-6   C22.9,62.8,18.9,66.8,13.9,66.8z"/> <path style="fill:none;" d="M28.9,8.8h-6c0-5-4-9-9-9c-5,0-9,4-9,9h-6l0,0v49l0,0h6c0,5,4,9,9,9c5,0,9-4,9-9h6l0,0V8.8L28.9,8.8z"/> </g> <g id="dot-separated-circle" style="display:none;"> <circle style="display:inline;" cx="13.9" cy="33.8" r="15"/> <circle style="display:inline;fill:#FFFFFF;" cx="13.9" cy="33.8" r="9"/> </g> </symbol><symbol viewBox="-1.1 -6.2 30 79" id="icon-dot-single"><title>dot-single</title> <circle cx="13.9" cy="33.8" r="15"/> <circle style="fill:#FFFFFF;" cx="13.9" cy="33.8" r="9"/> </symbol><symbol viewBox="-1.1 -6.2 30 79" id="icon-dot-triple"><title>dot-triple</title> <g id="dot-triple-maantje-2"> <path d="M28.9,53.8c0,8.3-6.7,15-15,15c-8.3,0-15-6.7-15-15c0-8.3,6.7-15,15-15   C22.2,38.8,28.9,45.5,28.9,53.8z"/> <path style="fill:#FFFFFF;" d="M30,47.8c0,8.3-7.2,15-16,15s-16.1-6.7-16.1-15c0-8.3,7.2-15,16.1-15S30,39.5,30,47.8z"/> </g> <g id="dot-triple-maantje-1"> <path d="M28.9,43.8c0,8.3-6.7,15-15,15c-8.3,0-15-6.7-15-15c0-8.3,6.7-15,15-15   C22.2,28.8,28.9,35.5,28.9,43.8z"/> <path style="fill:#FFFFFF;" d="M30,37.8c0,8.3-7.2,15-16,15s-16.1-6.7-16.1-15c0-8.3,7.2-15,16.1-15S30,29.5,30,37.8z"/> </g> <g id="dot-triple-circle"> <circle cx="13.9" cy="33.8" r="15"/> <circle style="fill:#FFFFFF;" cx="13.9" cy="33.8" r="9"/> </g> </symbol><symbol viewBox="0 0 35 35" id="icon-external"><title>external</title> <g> <polygon points="17 24 9 24 9 11 17 11 17 14.5 18 14.5 18 10 8 10 8 25 18 25 18 20.5 17 20.5 17 24"/> <polygon points="22.708 13.146 22.011 13.854 25.113 17 12.5 17 12.5 18 25.113 18 22.011 21.146 22.708 21.854 27 17.5 22.708 13.146"/> </g> </symbol><symbol viewBox="0 0 35 35" id="icon-ferry"><title>ferry</title> <path d="M23.838,27l1.16-7.422c0.029-0.188-0.05-0.377-0.205-0.488L23,17.809v-7.044l-0.182-0.151     c-1.03-0.848-3.034-1.497-4.822-1.594C17.996,9.013,18,9.007,18,9V5c0-0.276-0.224-0.5-0.5-0.5S17,4.724,17,5v4     c0,0.008,0.004,0.014,0.004,0.022c-1.864,0.107-3.828,0.743-4.829,1.598L12,10.77v6.991l-1.7,1.199     c-0.154,0.109-0.234,0.295-0.208,0.483L11.17,27H9v1h2.499c0.462,1,1.876,2,4.501,2v-1c-2.359,0-3.512-1.343-3.768-1.685     l-1.099-7.71L17,15.468V28c0,0.276,0.224,0.5,0.5,0.5S18,28.277,18,28V15.476l5.954,4.253l-1.186,7.588     c-0.252,0.347-1.407,1.74-3.768,1.74v1c2.625,0,4.042-1.057,4.505-2.057H26v-1H23.838z M22,17.095l-4.207-3.005     c-0.005-0.003-0.01-0.003-0.014-0.006c-0.033-0.022-0.07-0.034-0.106-0.048c-0.025-0.009-0.048-0.023-0.073-0.028     c-0.037-0.008-0.075-0.004-0.113-0.003c-0.026,0.001-0.052-0.003-0.077,0.002c-0.034,0.006-0.065,0.023-0.098,0.037     c-0.029,0.012-0.058,0.02-0.084,0.037c-0.005,0.004-0.012,0.004-0.017,0.008L13,17.056v-5.813C13.978,10.536,15.907,10,17.543,10     c1.558,0,3.451,0.538,4.457,1.248V17.095z M15,14h1v-1h3v1h1v-2h-5V14z"/> </symbol><symbol viewBox="0 0 35 35" id="icon-filter"><title>icoon_filter</title>  <g> <path d="M10.5,13a0.5,0.5,0,0,1-.5-0.5v-4a0.5,0.5,0,0,1,1,0v4A0.5,0.5,0,0,1,10.5,13Z"/> <path d="M10.5,27a0.5,0.5,0,0,1-.5-0.5V18.312a0.5,0.5,0,0,1,1,0V26.5A0.5,0.5,0,0,1,10.5,27Z"/> <path d="M11.5,14.9a0.5,0.5,0,0,1,0,1h-2a0.5,0.5,0,0,1,0-1h2m0-1h-2a1.5,1.5,0,1,0,0,3h2a1.5,1.5,0,0,0,0-3h0Z"/> <path d="M24.5,10.8a0.5,0.5,0,0,1-.5-0.5V8.5a0.5,0.5,0,1,1,1,0v1.8A0.5,0.5,0,0,1,24.5,10.8Z"/> <path d="M24.5,27a0.5,0.5,0,0,1-.5-0.5V16.512a0.5,0.5,0,1,1,1,0V26.5A0.5,0.5,0,0,1,24.5,27Z"/> <path d="M25.5,12.9a0.5,0.5,0,0,1,0,1h-2a0.5,0.5,0,0,1,0-1h2m0-1h-2a1.5,1.5,0,0,0,0,3h2a1.5,1.5,0,0,0,0-3h0Z"/> <path d="M17.5,27a0.5,0.5,0,0,1-.5-0.5V22.512a0.5,0.5,0,1,1,1,0V26.5A0.5,0.5,0,0,1,17.5,27Z"/> <path d="M17.5,17.2a0.5,0.5,0,0,1-.5-0.5V8.5a0.5,0.5,0,1,1,1,0v8.2A0.5,0.5,0,0,1,17.5,17.2Z"/> <path d="M18.5,19.112a0.5,0.5,0,0,1,0,1h-2a0.5,0.5,0,0,1,0-1h2m0-1h-2a1.5,1.5,0,0,0,0,3h2a1.5,1.5,0,0,0,0-3h0Z"/> </g> </symbol><symbol viewBox="0 0 35 35" id="icon-forum"><title>forum</title> <path d="M28.5,15h-12c-0.8,0-1.5,0.7-1.5,1.5v7c0,0.8,0.7,1.5,1.5,1.5H20v5l5-5h3.5c0.8,0,1.5-0.7,1.5-1.5v-7  C30,15.7,29.3,15,28.5,15z M29,23.5c0,0.3-0.2,0.5-0.5,0.5H26h-1h-0.4L21,27.6V25v-1h-1h-3.5c-0.3,0-0.5-0.2-0.5-0.5v-7  c0-0.3,0.2-0.5,0.5-0.5h12c0.3,0,0.5,0.2,0.5,0.5V23.5z"/> <path d="M19.5,8h-12C6.7,8,6,8.7,6,9.5v7C6,17.3,6.7,18,7.5,18H10l3,3v-1.4L10.4,17H10H9H7.5C7.2,17,7,16.8,7,16.5v-7  C7,9.2,7.2,9,7.5,9h12C19.8,9,20,9.2,20,9.5V13h1V9.5C21,8.7,20.3,8,19.5,8z"/> </symbol><symbol viewBox="0 0 75 75" id="icon-group"><title>group</title> <g> <g> <path d="M19.435,25.857c-1.496,0-2.958-0.763-3.785-2.136c-0.605-1.01-0.78-2.192-0.494-3.331    c0.284-1.133,0.994-2.087,1.998-2.686c2.068-1.238,4.769-0.558,6.017,1.52l0,0c0.604,1.005,0.782,2.184,0.499,3.319    c-0.282,1.135-0.991,2.092-1.995,2.695C20.973,25.658,20.199,25.857,19.435,25.857z M19.391,18.085    c-0.589,0-1.185,0.154-1.725,0.477c-0.774,0.462-1.321,1.197-1.541,2.071c-0.222,0.879-0.086,1.792,0.382,2.572    c0.965,1.604,3.055,2.132,4.652,1.175c0.774-0.465,1.321-1.203,1.539-2.079c0.219-0.876,0.081-1.786-0.386-2.562v0    C21.675,18.676,20.545,18.085,19.391,18.085z"/> </g> <g> <path d="M26.5,43.5c-0.276,0-0.5-0.224-0.5-0.5V32c0-1.598-1.471-3-3.146-3H22c-0.276,0-0.5-0.224-0.5-0.5S21.724,28,22,28h0.854    C25.062,28,27,29.869,27,32v11C27,43.276,26.776,43.5,26.5,43.5z"/> </g> <g> <path d="M12.5,43.5c-0.276,0-0.5-0.224-0.5-0.5V32c0-2.206,1.768-4,3.94-4H17c0.276,0,0.5,0.224,0.5,0.5S17.276,29,17,29h-1.06    C14.319,29,13,30.346,13,32v11C13,43.276,12.776,43.5,12.5,43.5z"/> </g> <g> <path d="M31.531,25.857c-1.495,0-2.958-0.763-3.785-2.137c-0.604-1.01-0.78-2.193-0.493-3.331    c0.285-1.133,0.994-2.087,1.998-2.686c2.069-1.241,4.769-0.557,6.017,1.521c0.604,1.005,0.781,2.184,0.499,3.319    c-0.283,1.135-0.991,2.092-1.995,2.695C33.07,25.658,32.296,25.857,31.531,25.857z M31.487,18.086    c-0.589,0-1.184,0.153-1.724,0.477c-0.774,0.462-1.321,1.197-1.541,2.071c-0.222,0.879-0.086,1.792,0.381,2.572    c0.967,1.604,3.055,2.13,4.653,1.175c0.774-0.465,1.321-1.203,1.539-2.079c0.219-0.876,0.081-1.786-0.386-2.562c0,0,0,0,0,0    C33.771,18.676,32.642,18.086,31.487,18.086z"/> </g> <g> <path d="M38.5,43.5c-0.276,0-0.5-0.224-0.5-0.5V32c0-1.626-1.396-3-3.049-3H34c-0.276,0-0.5-0.224-0.5-0.5S33.724,28,34,28h0.951    C37.146,28,39,29.832,39,32v11C39,43.276,38.776,43.5,38.5,43.5z"/> </g> <g> <path d="M43.629,25.857c-1.496,0-2.958-0.763-3.785-2.137c-0.604-1.01-0.78-2.193-0.494-3.331    c0.285-1.133,0.995-2.087,1.998-2.686c2.067-1.238,4.769-0.558,6.017,1.52l0,0c0.604,1.005,0.782,2.184,0.5,3.319    c-0.283,1.135-0.992,2.093-1.996,2.696C45.167,25.658,44.394,25.857,43.629,25.857z M43.585,18.085    c-0.589,0-1.185,0.154-1.725,0.477c-0.773,0.462-1.32,1.197-1.54,2.071c-0.222,0.879-0.086,1.792,0.381,2.572    c0.967,1.605,3.056,2.132,4.652,1.175c0.774-0.465,1.322-1.204,1.54-2.079c0.218-0.876,0.081-1.786-0.387-2.562v0    C45.869,18.676,44.739,18.085,43.585,18.085z"/> </g> <g> <path d="M50.5,43.5c-0.276,0-0.5-0.224-0.5-0.5V32c0-1.654-1.324-3-2.951-3H46c-0.276,0-0.5-0.224-0.5-0.5S45.724,28,46,28h1.049    C49.228,28,51,29.794,51,32v11C51,43.276,50.776,43.5,50.5,43.5z"/> </g> <g> <path d="M55.629,25.857c-1.496,0-2.958-0.763-3.785-2.137c-0.604-1.01-0.78-2.193-0.494-3.331    c0.285-1.133,0.995-2.087,1.998-2.686c2.068-1.238,4.769-0.558,6.017,1.52l0,0c0.604,1.005,0.782,2.184,0.5,3.319    c-0.283,1.135-0.992,2.093-1.996,2.696C57.167,25.658,56.394,25.857,55.629,25.857z M55.585,18.085    c-0.589,0-1.185,0.154-1.725,0.477c-0.773,0.462-1.32,1.197-1.54,2.071c-0.222,0.879-0.086,1.792,0.381,2.572    c0.967,1.605,3.056,2.132,4.652,1.175c0.774-0.465,1.322-1.204,1.54-2.079c0.218-0.876,0.081-1.786-0.387-2.562v0    C57.869,18.676,56.739,18.085,55.585,18.085z"/> </g> <g> <path d="M62.5,43.5c-0.276,0-0.5-0.224-0.5-0.5V32c0-1.654-1.324-3-2.951-3H58c-0.276,0-0.5-0.224-0.5-0.5S57.724,28,58,28h1.049    C61.228,28,63,29.794,63,32v11C63,43.276,62.776,43.5,62.5,43.5z"/> </g> <g> <path d="M23,43v15c0,0.276,0.224,0.5,0.5,0.5S24,58.276,24,58V43H23z"/> <path d="M15.5,58.5c0.276,0,0.5-0.224,0.5-0.5V43h-1v15C15,58.276,15.224,58.5,15.5,58.5z"/> <path d="M35,58c0,0.276,0.224,0.5,0.5,0.5S36,58.276,36,58V43h-1V58z"/> <path d="M47,58c0,0.276,0.224,0.5,0.5,0.5S48,58.276,48,58V43h-1V58z"/> <path d="M59,58c0,0.276,0.224,0.5,0.5,0.5S60,58.276,60,58V43h-1V58z"/> </g> </g> </symbol><symbol viewBox="0 0 35 35" id="icon-halte"><title>icoon/bushalte_NS_Blue</title><desc>Created with Sketch.</desc> <!-- Generator: Sketch 40.3 (33839) - http://www.bohemiancoding.com/sketch -->    <g id="halte-Symbols" stroke="none" stroke-width="1" fill="none" fill-rule="evenodd"> <g id="halte-icoon/bushalte_NS_Blue"> <g id="halte-icon_halte" transform="translate(13.000000, 5.000000)"> <rect id="halte-Rectangle-193" fill="#333385" x="4" y="12" width="1" height="12"/> <path d="M3.00591905,1.5 L5.99408095,1.5 C6.82563839,1.5 7.5,2.17186525 7.5,2.9973917 L7.5,8.0026083 C7.5,8.83354271 6.83335384,9.5 5.99408095,9.5 L3.00591905,9.5 C2.17436161,9.5 1.5,8.82813475 1.5,8.0026083 L1.5,2.9973917 C1.5,2.16645729 2.16664616,1.5 3.00591905,1.5 Z M0.5,8.0026083 C0.5,9.38125142 1.62290538,10.5 3.00591905,10.5 L5.99408095,10.5 C7.38557517,10.5 8.5,9.3858909 8.5,8.0026083 L8.5,2.9973917 C8.5,1.61874858 7.37709462,0.5 5.99408095,0.5 L3.00591905,0.5 C1.61442483,0.5 0.5,1.6141091 0.5,2.9973917 L0.5,8.0026083 Z" id="halte-Rectangle-194" fill="#003082"/> </g> </g> </g> </symbol><symbol viewBox="0 0 75 75" id="icon-icdirect"><title>icdirect</title> <g> <path d="M29.114,36.606V21.443h3.055v15.162L29.114,36.606L29.114,36.606z"/> <path d="M43.129,36.715c-5.221,0-8.231-2.838-8.231-7.733c0-4.722,3.032-7.647,7.95-7.647c1.385,0,2.08,0.109,3.748,0.673   l-0.238,2.578c-1.084-0.564-2.016-0.824-3.207-0.824c-3.096,0-5.002,1.97-5.002,5.134c0,3.12,2.057,5.285,5.09,5.285   c1.104,0,2.143-0.195,3.291-0.65l0.131,2.687C45.121,36.628,44.516,36.715,43.129,36.715z"/> <path d="M20.74,53.42l-0.019-1.552c-0.247,0.457-0.352,0.65-0.617,0.881c-0.582,0.547-1.377,0.812-2.276,0.812   c-2.435,0-3.829-1.801-3.829-4.887c0-2.752,1.5-4.588,3.776-4.588c0.812,0,1.534,0.248,2.099,0.725   c0.318,0.265,0.477,0.441,0.758,0.969c-0.053-0.263-0.053-0.527-0.071-0.811c-0.018-0.248-0.018-0.406-0.018-0.441v-4.448h2.364   v10.676c0,0.424,0.018,1.2,0.035,1.57c0.018,0.794,0,0.582,0.035,1.095H20.74z M18.41,46.062c-1.217,0-1.958,1.042-1.958,2.736   c0,1.745,0.811,2.894,2.064,2.894c1.217,0,2.065-1.129,2.065-2.788C20.582,47.19,19.716,46.062,18.41,46.062z"/> <path d="M25.575,42.587v-2.241h2.452v2.24L25.575,42.587L25.575,42.587z M25.609,53.42v-9.175h2.383v9.175H25.609z"/> <path d="M35.279,46.362c-0.53,0-1.006,0.193-1.393,0.529c-0.618,0.563-0.83,1.198-0.83,2.753v3.773h-2.364v-6.403   c0-0.247-0.019-0.74-0.019-0.987c0-0.284,0-0.582-0.018-0.865c-0.018-0.177,0-0.477-0.018-0.688l-0.019-0.229h2.152l0.053,2.329   c0.423-1.589,1.288-2.399,2.576-2.399c0.265,0,0.407,0.017,0.688,0.104v2.205C35.702,46.379,35.561,46.362,35.279,46.362z"/> <path d="M45.668,49.591H39.51c0.105,1.429,1.146,2.293,2.699,2.293c0.936,0,1.73-0.246,2.877-0.935l0.035,2.064   c-0.955,0.423-2.012,0.652-3.195,0.652c-2.998,0-4.762-1.782-4.762-4.834c0-2.964,1.729-4.834,4.428-4.834   c2.557,0,4.129,1.729,4.129,4.57C45.721,48.796,45.703,49.149,45.668,49.591z M41.539,45.675c-1.146,0-1.924,0.864-2.064,2.275   h3.988C43.445,46.521,42.738,45.675,41.539,45.675z"/> <path d="M51.809,53.489c-2.912,0-4.691-1.799-4.691-4.691c0-2.806,1.852-4.622,4.656-4.622c0.635,0,1.129,0.069,1.975,0.299   l-0.176,1.906c-0.635-0.267-0.9-0.319-1.412-0.319c-1.551,0-2.592,1.112-2.592,2.771c0,1.606,1.041,2.682,2.629,2.682   c0.615,0,0.934-0.053,1.641-0.369l0.104,1.995C52.955,53.42,52.549,53.489,51.809,53.489z"/> <path d="M59.449,53.489c-2.205,0-3.105-1.04-3.105-3.581v-3.847h-1.729v-1.746h1.746v-1.871l2.383-0.776v2.647h2.08v1.746h-2.08   v3.334c0,0.601,0.033,0.97,0.086,1.254c0.125,0.581,0.602,0.934,1.271,0.934c0.246,0,0.424-0.018,0.828-0.123l0.072,1.853   C60.295,53.455,59.996,53.489,59.449,53.489z"/> </g> </symbol><symbol viewBox="0 0 35 35" id="icon-info"><title>info</title> <g> <g> <path d="M17.5,27.5c-5.514,0-10-4.486-10-10s4.486-10,10-10s10,4.486,10,10S23.014,27.5,17.5,27.5z M17.5,8.5    c-4.962,0-9,4.038-9,9s4.038,9,9,9s9-4.038,9-9S22.462,8.5,17.5,8.5z"/> </g> </g> <g> <path d="M17.5,14L17.5,14c-0.414,0-0.75-0.336-0.75-0.75v0c0-0.414,0.336-0.75,0.75-0.75l0,0c0.414,0,0.75,0.336,0.75,0.75v0   C18.25,13.664,17.914,14,17.5,14z"/> </g> <g> <path d="M17.5,16c-0.276,0-0.5,0.224-0.5,0.5V23h1v-6.5C18,16.224,17.776,16,17.5,16z"/> </g> </symbol><symbol viewBox="0 0 35 35" id="icon-koffie-beker"><title>icoon/koffie_beker_NS_Blue</title><desc>Created with Sketch.</desc>   <g> <path fill-rule="evenodd" clip-rule="evenodd" d="M24.247,8.025l-0.15-0.578C23.891,6.651,23.05,6,22.221,6h-9.442   c-0.832,0-1.669,0.648-1.876,1.447L10.759,8l-0.007,0.025C10.038,8.145,9.5,8.757,9.5,9.5c0,0.683,0.454,1.246,1.074,1.43   L10.579,11l1.348,17.022C11.967,28.57,12.417,29,12.952,29h9.196c0.534,0,0.984-0.43,1.025-0.978l1.256-17.046l0.003-0.047   c0.62-0.187,1.068-0.752,1.068-1.429C25.5,8.753,24.958,8.144,24.247,8.025z M11.871,7.698C11.964,7.339,12.403,7,12.779,7h9.442   c0.373,0,0.816,0.342,0.908,0.698C23.158,7.81,23.174,7.868,23.208,8H11.792L11.871,7.698z M22.54,23H21v1h1.466l-0.291,3.948   C22.173,27.98,22.152,28,22.148,28h-9.196c-0.004,0-0.025-0.019-0.027-0.051L12.612,24H19v-1h-6.467l-0.713-9H19v-1h-7.259   l-0.158-2h11.841l-0.147,2H21v1h2.203L22.54,23z M23.995,10h-12.99C10.723,10,10.5,9.779,10.5,9.5c0-0.278,0.222-0.5,0.505-0.5   h12.99C24.277,9,24.5,9.221,24.5,9.5C24.5,9.778,24.278,10,23.995,10z"/> </g> </symbol><symbol viewBox="0 0.5 35 35" id="icon-mail"><title>mail</title> <g> <g> <path d="M27,23.6c0,1.1-0.9,1.9-1.9,1.9H9.9c-1.1,0-1.9-0.9-1.9-1.9V13.5c0-1.1,0.9-1.9,1.9-1.9h15.2c1.1,0,1.9,0.9,1.9,1.9V23.6z     M26,13.5c0-0.5-0.4-0.9-0.9-0.9H9.9C9.4,12.5,9,13,9,13.5v10.2c0,0.5,0.4,0.9,0.9,0.9h15.2c0.5,0,0.9-0.4,0.9-0.9V13.5z"/> </g> </g> <g> <polygon points="10,13.7 10,15 17.5,21.2 25,15 25,13.7 17.5,19.9  "/> </g> </symbol><symbol viewBox="0 0 35 35" id="icon-maintenance"><title>maintenance</title> <g> <path d="M25.834,28.5c-0.172,0-0.339-0.089-0.433-0.248l-9.333-16c-0.139-0.239-0.058-0.545,0.18-0.684   c0.238-0.138,0.545-0.058,0.684,0.18l9.333,16c0.139,0.239,0.058,0.545-0.18,0.684C26.006,28.478,25.919,28.5,25.834,28.5z"/> </g> <g> <path d="M15.252,10.75c-0.153,0-0.309-0.013-0.465-0.039c-1.494-0.257-2.502-1.682-2.248-3.176   c0.255-1.477,1.652-2.508,3.177-2.245c1.493,0.257,2.499,1.681,2.244,3.174C17.735,9.788,16.596,10.75,15.252,10.75z M15.249,6.25   c-0.853,0-1.578,0.611-1.724,1.454c-0.162,0.951,0.48,1.858,1.431,2.021c0.959,0.16,1.858-0.49,2.019-1.429   c0.162-0.951-0.478-1.857-1.428-2.021C15.447,6.258,15.348,6.25,15.249,6.25z"/> </g> <path d="M15.5,20.906c0.276,0,0.5-0.224,0.5-0.5v-5.258l-1-1.8v7.058C15,20.683,15.224,20.906,15.5,20.906z"/> <g> <path fill="none" stroke="#000000" stroke-linecap="round" stroke-linejoin="round" stroke-miterlimit="10" d="M17.753,23.166"/> </g> <path d="M18.889,20.689l-2.742,2.742C16.053,23.525,16,23.652,16,23.785V28c0,0.276,0.224,0.5,0.5,0.5S17,28.276,17,28v-4.008  l2.394-2.393L18.889,20.689z"/> <g> <path d="M10.013,28.499c-0.64,0-1.28-0.244-1.768-0.731c-0.974-0.975-0.974-2.561,0-3.536l1.061-1.061l0.707,0.707L8.952,24.94   c-0.584,0.585-0.584,1.537,0,2.122c0.585,0.584,1.537,0.583,2.122,0L12.134,26l0.707,0.707l-1.061,1.061   C11.293,28.255,10.653,28.499,10.013,28.499z"/> </g> <g> <path d="M22.913,13.578c-0.182,0-0.356-0.102-0.441-0.276c-0.187-0.384-0.402-0.697-0.661-0.956   c-0.335-0.334-0.726-0.594-1.161-0.771c-0.841-0.341-1.802-0.341-2.643,0c-0.435,0.176-0.826,0.436-1.161,0.771   c-0.192,0.191-0.502,0.191-0.692,0c-0.191-0.191-0.191-0.501,0-0.692c0.429-0.428,0.929-0.76,1.485-0.986   c1.076-0.437,2.303-0.437,3.379,0c0.557,0.226,1.057,0.558,1.485,0.986c0.336,0.337,0.614,0.736,0.849,1.221   c0.118,0.243,0.016,0.536-0.227,0.654C23.057,13.562,22.984,13.578,22.913,13.578z"/> </g> <g> <path d="M11.353,25.147c-0.128,0-0.256-0.049-0.354-0.146c-0.195-0.195-0.195-0.512,0-0.707l11.559-11.559   c0.195-0.195,0.512-0.195,0.707,0s0.195,0.512,0,0.707L11.707,25.001C11.609,25.098,11.481,25.147,11.353,25.147z"/> </g> </symbol><symbol viewBox="0 0 35 35" id="icon-maintenance_rood"><title>maintenance_rood</title> <g> <rect x="2" y="3" width="31" height="29"/> </g> <path fill="#DB0029" d="M26.265,27.748l-6.376-10.93l3.376-3.376c0.175-0.175,0.184-0.443,0.046-0.638  c-0.227-0.45-0.49-0.831-0.808-1.15c-0.428-0.428-0.928-0.76-1.485-0.986c-1.076-0.437-2.303-0.437-3.379,0  c-0.511,0.208-0.967,0.515-1.372,0.894c-0.006,0.003-0.013,0.003-0.019,0.006c-0.238,0.139-0.319,0.445-0.18,0.684l2.569,4.404  L16,19.293v-4.145l-1-1.8v6.945l-4.001,4.001c-0.195,0.195-0.195,0.512,0,0.707c0.098,0.097,0.226,0.146,0.354,0.146  c0.128,0,0.256-0.049,0.354-0.146l7.451-7.452l6.243,10.703c0.094,0.159,0.261,0.248,0.433,0.248c0.085,0,0.172-0.022,0.251-0.068  C26.323,28.293,26.404,27.987,26.265,27.748z M17.14,12.105c0.266-0.214,0.55-0.402,0.867-0.53c0.841-0.341,1.802-0.341,2.643,0  c0.435,0.177,0.826,0.437,1.161,0.771c0.184,0.184,0.34,0.407,0.485,0.651l-2.927,2.927L17.14,12.105z M14.787,10.711  c0.156,0.026,0.312,0.039,0.465,0.039c1.344,0,2.483-0.962,2.708-2.286c0.255-1.493-0.751-2.917-2.244-3.174  c-1.525-0.263-2.922,0.768-3.177,2.245C12.285,9.029,13.293,10.454,14.787,10.711z M13.525,7.704  c0.146-0.843,0.871-1.454,1.724-1.454c0.099,0,0.198,0.008,0.298,0.025c0.95,0.164,1.59,1.07,1.428,2.021  c-0.161,0.939-1.06,1.589-2.019,1.429C14.005,9.562,13.363,8.655,13.525,7.704z M16.147,23.431C16.053,23.525,16,23.652,16,23.785  V28c0,0.276,0.224,0.5,0.5,0.5S17,28.276,17,28v-4.008l2.394-2.393l-0.505-0.91L16.147,23.431z M11.074,27.062  c-0.585,0.583-1.537,0.584-2.122,0c-0.584-0.585-0.584-1.537,0-2.122l1.061-1.062l-0.707-0.707l-1.061,1.061  c-0.974,0.975-0.974,2.561,0,3.536c0.488,0.487,1.128,0.731,1.768,0.731s1.28-0.244,1.767-0.731l1.061-1.061L12.134,26  L11.074,27.062z"/> </symbol><symbol viewBox="-288 379 35 35" id="icon-manvrouw"><title>icoon/koffie_beker_NS_Blue</title><desc>Created with Sketch.</desc> <style type="text/css"> .st0{fill-rule:evenodd;clip-rule:evenodd;} </style>   <path d="M-272.75,392c0.413,0,0.75,0.339,0.75,0.755V399c0,0.276,0.224,0.5,0.5,0.5s0.5-0.224,0.5-0.5v-6.245  c0-0.968-0.784-1.755-1.75-1.755H-274c-0.276,0-0.5,0.224-0.5,0.5s0.224,0.5,0.5,0.5H-272.75z"/> <path d="M-277.25,386.75c0-0.966,0.784-1.75,1.75-1.75s1.75,0.784,1.75,1.75s-0.784,1.75-1.75,1.75S-277.25,387.716-277.25,386.75z   M-272.75,386.75c0-1.519-1.231-2.75-2.75-2.75s-2.75,1.231-2.75,2.75s1.231,2.75,2.75,2.75S-272.75,388.269-272.75,386.75z"/> <path d="M-278.25,391c-0.966,0-1.75,0.788-1.75,1.755V399c0,0.276,0.224,0.5,0.5,0.5s0.5-0.224,0.5-0.5v-6.245  c0-0.417,0.337-0.755,0.75-0.755h1.25c0.276,0,0.5-0.224,0.5-0.5s-0.224-0.5-0.5-0.5H-278.25z"/> <path class="st0" d="M-278,399h1v8.49c0,0.281-0.232,0.51-0.5,0.51c-0.276,0-0.5-0.222-0.5-0.51V399z"/> <path class="st0" d="M-274,399h1v8.49c0,0.281-0.232,0.51-0.5,0.51c-0.276,0-0.5-0.222-0.5-0.51V399z"/> <path d="M-263.309,392.81l1.315,8.764c0.041,0.273,0.296,0.461,0.569,0.42c0.273-0.041,0.461-0.296,0.42-0.569l-1.315-8.764  c-0.137-0.911-0.857-1.662-1.68-1.662c-0.276,0-0.5,0.224-0.5,0.5s0.224,0.5,0.5,0.5C-263.717,392-263.378,392.354-263.309,392.81z"/> <path d="M-267.25,386.75c0-0.966,0.784-1.75,1.75-1.75s1.75,0.784,1.75,1.75s-0.784,1.75-1.75,1.75S-267.25,387.716-267.25,386.75z   M-262.75,386.75c0-1.519-1.231-2.75-2.75-2.75s-2.75,1.231-2.75,2.75s1.231,2.75,2.75,2.75S-262.75,388.269-262.75,386.75z"/> <path d="M-268.68,392.662l-1.315,8.764c-0.041,0.273,0.147,0.528,0.42,0.569c0.273,0.041,0.528-0.147,0.569-0.42l1.315-8.764  c0.068-0.456,0.408-0.81,0.691-0.81c0.276,0,0.5-0.224,0.5-0.5s-0.224-0.5-0.5-0.5C-267.823,391-268.543,391.751-268.68,392.662z"/> <path d="M-261.5,402c0.276,0,0.5-0.224,0.5-0.5s-0.224-0.5-0.5-0.5h-8c-0.276,0-0.5,0.224-0.5,0.5s0.224,0.5,0.5,0.5H-261.5z"/> <path class="st0" d="M-268,403h1v4.502c0,0.275-0.232,0.498-0.5,0.498c-0.276,0-0.5-0.215-0.5-0.498V403z"/> <path class="st0" d="M-264,403h1v4.502c0,0.275-0.232,0.498-0.5,0.498c-0.276,0-0.5-0.215-0.5-0.498V403z"/> </symbol><symbol viewBox="0 0 35 35" id="icon-menu-dots"><title>icoon_menu-stippen-klein</title><circle cx="12.5" cy="17.5" r="1.5"/><circle cx="22.5" cy="17.5" r="1.5"/><circle cx="17.5" cy="17.5" r="1.5"/></symbol><symbol viewBox="0 0 35 35" id="icon-minus"><title>minus</title> <path d="M26,18H9c-0.276,0-0.5-0.224-0.5-0.5S8.724,17,9,17h17c0.276,0,0.5,0.224,0.5,0.5S26.276,18,26,18z"/> </symbol><symbol viewBox="0 0 35 35" id="icon-negen"><title>negen</title> <g id="negen-Facebook_2_"> <g> <path fill="#3B5998" d="M26,8.5H9c-0.5,0-1,0.5-1,1v17c0,0.6,0.5,1,1,1h9.1v-7.4h-2.5v-2.9h2.5v-2.1c0-2.5,1.5-3.8,3.7-3.8    c1,0,1.9,0.1,2.2,0.1V14h-1.5c-1.2,0-1.4,0.6-1.4,1.4v1.8h2.8l-0.4,2.9H21v7.4h5c0.6,0,1-0.5,1-1v-17C27,9,26.5,8.5,26,8.5z"/> </g> </g> <g> <rect x="5" y="17.5" fill="#FFFFFF" width="12.499" height="12.5"/> <rect x="5" y="5" fill="#FFFFFF" width="25" height="24.999"/> <rect x="5" y="5.001" width="12.5" height="12.5"/> <rect x="17.499" y="17.5" width="12.5" height="12.5"/> <path fill="#FFFFFF" d="M8.873,13.451c0.242,0.038,0.436,0.025,0.8,0c0.569-0.024,1.138-0.198,1.563-0.497   c0.521-0.348,0.861-0.882,0.994-1.491l-0.025-0.012c-0.363,0.372-0.872,0.583-1.597,0.583c-1.333,0-2.449-0.944-2.449-2.522   c0-1.58,1.236-2.908,2.968-2.908c2.024,0,2.981,1.591,2.981,3.48c0,1.69-0.522,2.908-1.37,3.714   c-0.751,0.709-1.792,1.084-3.029,1.132c-0.3,0.024-0.618,0.011-0.835,0V13.451z M11.066,7.983c-0.618,0-1.077,0.572-1.077,1.417   c0,0.696,0.374,1.293,1.115,1.293c0.519,0,0.86-0.236,1.041-0.522c0.06-0.124,0.086-0.25,0.086-0.485   c0.01-0.857-0.316-1.703-1.152-1.703H11.066z"/> <path d="M20.825,14.82v-1.144l1.004-0.932c1.733-1.59,2.57-2.498,2.58-3.443c0-0.659-0.375-1.179-1.283-1.179   c-0.679,0-1.271,0.348-1.684,0.657l-0.522-1.342c0.581-0.46,1.514-0.832,2.569-0.832c1.793,0,2.761,1.069,2.761,2.535   c0,1.354-0.944,2.436-2.096,3.479l-0.725,0.622v0.025h2.979v1.555H20.825z"/> <path d="M8.873,26.284c0.242,0.038,0.436,0.025,0.8,0c0.569-0.024,1.138-0.199,1.563-0.497c0.521-0.348,0.861-0.882,0.994-1.49   l-0.025-0.012c-0.363,0.372-0.872,0.583-1.597,0.583c-1.333,0-2.449-0.944-2.449-2.522c0-1.579,1.236-2.908,2.968-2.908   c2.024,0,2.981,1.591,2.981,3.48c0,1.69-0.522,2.908-1.37,3.714c-0.751,0.709-1.792,1.083-3.029,1.132   c-0.3,0.023-0.618,0.011-0.835,0V26.284z M11.066,20.816c-0.618,0-1.077,0.571-1.077,1.418c0,0.695,0.374,1.292,1.115,1.292   c0.519,0,0.86-0.235,1.041-0.521c0.06-0.124,0.086-0.249,0.086-0.486c0.01-0.857-0.316-1.702-1.152-1.702H11.066z"/> <path fill="#FFFFFF" d="M20.825,27.651v-1.144l1.004-0.931c1.733-1.59,2.57-2.499,2.58-3.443c0-0.659-0.375-1.18-1.283-1.18   c-0.679,0-1.271,0.346-1.684,0.658l-0.522-1.344c0.581-0.458,1.514-0.831,2.569-0.831c1.793,0,2.761,1.069,2.761,2.535   c0,1.355-0.944,2.436-2.096,3.481l-0.725,0.621v0.024h2.979v1.554H20.825z"/> </g> </symbol><symbol viewBox="0 0 75 75" id="icon-netherlands"><title>netherlands</title> <g> <path d="M29.5,44c-0.128,0-0.256-0.049-0.354-0.146L28.293,43h-3.586l-0.854,0.854c-0.195,0.195-0.512,0.195-0.707,0   s-0.195-0.512,0-0.707l1-1C24.24,42.053,24.367,42,24.5,42h4c0.133,0,0.26,0.053,0.354,0.146l1,1c0.195,0.195,0.195,0.512,0,0.707   C29.756,43.951,29.628,44,29.5,44z"/> </g> <g> <path d="M28.5,47c-0.128,0-0.256-0.049-0.354-0.146L27.293,46h-4.586l-0.854,0.854c-0.195,0.195-0.512,0.195-0.707,0   s-0.195-0.512,0-0.707l1-1C22.24,45.053,22.367,45,22.5,45h5c0.133,0,0.26,0.053,0.354,0.146l1,1c0.195,0.195,0.195,0.512,0,0.707   C28.756,46.951,28.628,47,28.5,47z"/> </g> <g> <path d="M27.759,50.029c-0.111,0-0.222-0.036-0.314-0.111L26.312,49h-5.604l-0.854,0.854c-0.195,0.195-0.512,0.195-0.707,0   s-0.195-0.512,0-0.707l1-1C20.24,48.053,20.367,48,20.5,48h5.988c0.114,0,0.226,0.039,0.314,0.111l1.271,1.029   c0.215,0.174,0.248,0.489,0.074,0.703C28.049,49.966,27.904,50.029,27.759,50.029z"/> </g> <g> <path d="M18.5,55c-0.128,0-0.256-0.049-0.354-0.146l-1.5-1.5c-0.195-0.195-0.195-0.512,0-0.707l1.5-1.5   C18.24,51.053,18.367,51,18.5,51h7c0.133,0,0.26,0.053,0.354,0.146l1,1c0.195,0.195,0.195,0.512,0,0.707s-0.512,0.195-0.707,0   L25.293,52h-6.586l-1,1l1.146,1.146c0.195,0.195,0.195,0.512,0,0.707C18.756,54.951,18.628,55,18.5,55z"/> </g> <g> <path d="M46,63h-2.5c-0.133,0-0.26-0.053-0.354-0.146l-1.75-1.75c-0.195-0.195-0.195-0.512,0-0.707L42,59.793v-4.608L39.271,52   h-7.563l-3.854,3.854C27.76,55.947,27.633,56,27.5,56H21c-0.276,0-0.5-0.224-0.5-0.5S20.724,55,21,55h6.293l3.854-3.854   C31.24,51.053,31.367,51,31.5,51h8c0.146,0,0.284,0.063,0.38,0.175l3,3.5C42.957,54.766,43,54.881,43,55v5   c0,0.133-0.053,0.26-0.146,0.354l-0.396,0.396l1.25,1.25h2.112L47,61.016v-2.799l-1.716-1.602   c-0.098-0.091-0.155-0.218-0.159-0.352s0.047-0.263,0.139-0.359L48,53.049V47c0-0.127,0.049-0.25,0.136-0.343L56,38.302v-4.595   l-1.854-1.854c-0.195-0.195-0.195-0.512,0-0.707L56,29.293V26.5c0-0.133,0.053-0.26,0.146-0.354L58,24.293v-3.563L54.815,18H44.707   L41,21.707v4.586l1.854,1.854C42.947,28.24,43,28.367,43,28.5V30c0,0.128-0.049,0.251-0.137,0.344l-4.25,4.5   C38.52,34.943,38.388,35,38.25,35H35.5c-0.276,0-0.5-0.224-0.5-0.5V30c0-0.133,0.053-0.26,0.146-0.354l1.396-1.396L34.293,26H32   v7.5c0,0.133-0.053,0.26-0.146,0.354L26,39.707V40.5c0,0.276-0.224,0.5-0.5,0.5S25,40.776,25,40.5v-1   c0-0.133,0.053-0.26,0.146-0.354L31,33.293V25.5c0-0.276,0.224-0.5,0.5-0.5h3c0.133,0,0.26,0.053,0.354,0.146l2.75,2.75   c0.195,0.195,0.195,0.512,0,0.707L36,30.207V34h2.034L42,29.801v-1.094l-1.854-1.854C40.053,26.76,40,26.633,40,26.5v-5   c0-0.133,0.053-0.26,0.146-0.354l4-4C44.24,17.053,44.367,17,44.5,17H55c0.119,0,0.234,0.043,0.325,0.12l3.5,3   C58.937,20.216,59,20.354,59,20.5v4c0,0.133-0.053,0.26-0.146,0.354L57,26.707V29.5c0,0.133-0.053,0.26-0.146,0.354L55.207,31.5   l1.646,1.646C56.947,33.24,57,33.367,57,33.5v5c0,0.127-0.049,0.25-0.136,0.343L49,47.198v6.052c0,0.129-0.05,0.253-0.139,0.346   l-2.524,2.635l1.504,1.404C47.942,57.729,48,57.861,48,58v3.25c0,0.148-0.065,0.289-0.18,0.384l-1.5,1.25   C46.23,62.959,46.117,63,46,63z"/> </g> <g> <path d="M33.5,24c-0.128,0-0.256-0.049-0.354-0.146l-1-1c-0.195-0.195-0.195-0.512,0-0.707l1-1C33.24,21.053,33.367,21,33.5,21h1   c0.276,0,0.5,0.224,0.5,0.5S34.776,22,34.5,22h-0.793l-0.5,0.5l0.646,0.646c0.195,0.195,0.195,0.512,0,0.707   C33.756,23.951,33.628,24,33.5,24z"/> </g> <g> <path d="M34.5,20c-0.128,0-0.256-0.049-0.354-0.146c-0.195-0.195-0.195-0.512,0-0.707l1.5-1.5c0.195-0.195,0.512-0.195,0.707,0   s0.195,0.512,0,0.707l-1.5,1.5C34.756,19.951,34.628,20,34.5,20z"/> </g> <g> <path d="M37.5,17.5c-0.198,0-0.386-0.119-0.464-0.314c-0.103-0.256,0.021-0.547,0.278-0.649l2.5-1   c0.256-0.104,0.547,0.021,0.649,0.278c0.103,0.256-0.021,0.547-0.278,0.649l-2.5,1C37.625,17.488,37.562,17.5,37.5,17.5z"/> </g> <g> <path d="M45,16h-2c-0.276,0-0.5-0.224-0.5-0.5S42.724,15,43,15h2c0.276,0,0.5,0.224,0.5,0.5S45.276,16,45,16z"/> </g> <g> <path d="M50,16h-2c-0.276,0-0.5-0.224-0.5-0.5S47.724,15,48,15h2c0.276,0,0.5,0.224,0.5,0.5S50.276,16,50,16z"/> </g> </symbol><symbol viewBox="0 0 52 20" id="icon-nslogo"><title>nslogo</title> <g> <path fill="#003082" d="M25.4,18.4c1,1,2.4,1.6,4,1.6h11.8l10-10l-10-10h-5.6l8,8H32.8c-0.4,0-0.8-0.2-1.2-0.4l-5.8-6    c-1-1-2.4-1.6-4-1.6H10L0,10l10,10h5.6l-8-8h10.8c0.4,0,0.8,0.2,1.2,0.4L25.4,18.4z M22.4,9.6c-1-1-2.4-1.6-4-1.6H7.6l4-4h10.2    c0.4,0,0.8,0.2,1.2,0.4l5.8,6c1,1,2.4,1.6,4,1.6h10.8l-4,4H29.4c-0.4,0-0.8-0.2-1.2-0.4L22.4,9.6z"/> </g> </symbol><symbol viewBox="0 0 11 11" id="icon-ov-dot"><title>OV punt</title><desc>Created with Sketch.</desc> <!-- Generator: Sketch 3.6.1 (26313) - http://www.bohemiancoding.com/sketch -->    <g id="ov-dot--Assets" stroke="none" stroke-width="1" fill-rule="evenodd"> <g id="ov-dot-icons" transform="translate(-92.000000, -452.000000)"> <g id="ov-dot-OV-punt" transform="translate(92.000000, 452.000000)"> <path d="M5.5,0 C2.463,0 0,2.462 0,5.5 C0,8.538 2.463,11 5.5,11 C8.537,11 11,8.538 11,5.5 C11,2.462 8.537,0 5.5,0 M5.5,2.2 C7.319,2.2 8.8,3.68 8.8,5.5 C8.8,7.32 7.319,8.8 5.5,8.8 C3.681,8.8 2.2,7.32 2.2,5.5 C2.2,3.68 3.681,2.2 5.5,2.2" id="ov-dot-Fill-3"/> </g> </g> </g> </symbol><symbol viewBox="0 0 35 35" id="icon-ovchipkaart"><title>ovchipkaart</title> <path d="M9.931,22.437h2.759c0.566,0,1.132-0.212,1.627-0.637l7.427-7.427c0.141-0.141,0.354-0.212,0.495-0.212h2.688  c0.354,0,0.637,0.212,0.707,0.566v0.071v5.235c0,0.354-0.283,0.637-0.566,0.637h-0.071h-1.344c-0.424-1.627-2.051-2.547-3.678-2.122  c-1.627,0.424-2.547,2.051-2.122,3.678c0.424,1.627,2.051,2.547,3.678,2.122c0.99-0.283,1.768-1.061,2.051-1.981h1.485  c1.203,0.071,2.264-0.92,2.264-2.122c0-0.071,0-0.071,0-0.141v-5.305c0.071-1.203-0.92-2.264-2.122-2.264c-0.071,0-0.071,0-0.141,0  H22.31c-0.637,0-1.203,0.212-1.627,0.637l-7.427,7.427c-0.141,0.141-0.283,0.141-0.495,0.141h-2.759  c-0.354,0-0.637-0.212-0.707-0.566v-0.071v-5.235c0-0.354,0.283-0.637,0.566-0.637h0.071h1.415c0.424,1.627,2.051,2.547,3.678,2.122  c1.627-0.424,2.547-2.051,2.122-3.678c-0.424-1.627-2.051-2.547-3.678-2.122c-0.92,0.283-1.698,0.99-1.981,1.981H9.931  c-1.203-0.071-2.264,0.92-2.264,2.122c0,0.071,0,0.071,0,0.141v5.305c-0.071,1.203,0.92,2.264,2.122,2.264  C9.86,22.437,9.931,22.437,9.931,22.437z M20.683,23.215c-0.92,0-1.698-0.778-1.698-1.698c0-0.92,0.778-1.698,1.698-1.698  c0.92,0,1.698,0.778,1.698,1.698C22.381,22.508,21.673,23.215,20.683,23.215z M14.317,11.756c0.92,0,1.698,0.778,1.698,1.698  s-0.778,1.698-1.698,1.698c-0.92,0-1.698-0.778-1.698-1.698C12.69,12.463,13.397,11.756,14.317,11.756z"/> </symbol><symbol viewBox="0 0 31 12" id="icon-overcheck"><title>icon_overcheck</title><desc>Created with Sketch.</desc> <!-- Generator: Sketch 41 (35326) - http://www.bohemiancoding.com/sketch -->    <g id="overcheck-Varianten" stroke="none" stroke-width="1" fill="none" fill-rule="evenodd"> <g id="overcheck-Overchecken" transform="translate(-404.000000, -589.000000)"> <g id="overcheck-icon_overcheck" transform="translate(404.000000, 585.000000)"> <path d="M0,8.9973917 C0,7.89426273 0.897060126,7 2.00585866,7 L11.9941413,7 C13.1019465,7 14,7.89585781 14,8.9973917 L14,14.0026083 C14,15.1057373 13.1029399,16 11.9941413,16 L2.00585866,16 C0.898053512,16 0,15.1041422 0,14.0026083 L0,8.9973917 Z M17,8.9973917 C17,7.89426273 17.8970601,7 19.0058587,7 L28.9941413,7 C30.1019465,7 31,7.89585781 31,8.9973917 L31,14.0026083 C31,15.1057373 30.1029399,16 28.9941413,16 L19.0058587,16 C17.8980535,16 17,15.1041422 17,14.0026083 L17,8.9973917 Z" id="overcheck-Combined-Shape" fill="#E6007E"/> <path d="M22.108595,7.0612372 L19.7254463,7.15526463 C19.4178109,7.16796527 19.179855,7.43270426 19.1921091,7.75288847 C19.2045171,8.06453444 19.4506767,8.30782108 19.7458528,8.30782108 L23.4252744,8.16710012 C23.7247061,8.15418602 23.9584577,7.90236114 23.9584577,7.59071517 L23.9584577,7.52235584 L23.8230469,3.75704283 C23.810844,3.43685862 23.5524816,3.18924949 23.2488455,3.20195013 C22.9412101,3.21486423 22.7032541,3.47938976 22.7156621,3.79957397 L22.8018,6.16050564 C21.312691,4.89252279 19.4792867,4.15834038 17.5185214,4.05577471 C15.0903042,3.92775438 12.7563772,4.79433296 10.9556336,6.49344386 C8.47834847,8.82870743 7.42823514,12.3805643 8.21578168,15.7616562 C8.27725748,16.0263952 8.50275421,16.2014826 8.75311813,16.2014826 C8.79818671,16.2014826 8.83925603,16.1971068 8.88432461,16.1844061 C9.17970584,16.1075086 9.36418452,15.7958626 9.29045457,15.4885925 C8.60130007,12.517283 9.52000183,9.39655414 11.6981115,7.34726843 C14.6636652,4.55520872 19.101972,4.51267758 22.108595,7.0612372 Z" id="overcheck-Fill-1" fill="#FFFFFF" transform="translate(15.958458, 9.701483) rotate(-331.000000) translate(-15.958458, -9.701483) "/> <path d="M21.8564709,7 C21.3312957,6.43562667 20.7293953,5.93815346 20.0600137,5.51996912 C17.9983125,4.23077694 15.5368883,3.85719338 13.1381772,4.47025142 C11.4526576,4.90018744 9.93902595,5.78854007 8.73488907,7 L10.4200684,7 C11.2926256,6.34148722 12.2926459,5.85160729 13.3736207,5.57698367 C15.8571807,4.94513084 18.3229671,5.54787531 20.1574245,7 L21.8564709,7 Z" id="overcheck-Combined-Shape" fill="#E6007E"/> </g> </g> </g> </symbol><symbol viewBox="-288 379 35 35" id="icon-ovfiets-logo"><title>icoon/koffie_beker_NS_Blue</title><desc>Created with Sketch.</desc> <style type="text/css"> .st0{fill-rule:evenodd;clip-rule:evenodd;} </style>   <polygon class="st0" points="-272.103,395.802 -270.643,395.802 -265.54,400.22 -260.437,395.802 -258.978,395.802   -264.827,400.992 -266.252,400.992 "/> <path class="st0" d="M-276.622,404.363c-2.442,0-4.422-1.979-4.422-4.422c0-2.443,1.98-4.421,4.422-4.421  c2.443,0,4.423,1.979,4.423,4.421S-274.178,404.363-276.622,404.363z M-276.622,394.516c-2.995,0-5.425,2.429-5.425,5.424  s2.429,5.425,5.425,5.425c2.998,0,5.425-2.429,5.425-5.425C-271.197,396.945-273.625,394.516-276.622,394.516z"/> <path class="st0" d="M-261.717,394.808l0.143-0.731c0.589,0.296,1.081,0.444,1.477,0.444c0.238,0,0.426-0.056,0.562-0.171  c0.135-0.115,0.203-0.263,0.203-0.445c0-0.116-0.028-0.219-0.082-0.31c-0.055-0.093-0.159-0.221-0.316-0.387l-0.393-0.408  c-0.332-0.347-0.539-0.611-0.626-0.792c-0.087-0.18-0.129-0.358-0.129-0.531c0-0.305,0.132-0.599,0.397-0.882  c0.263-0.282,0.671-0.422,1.218-0.422c0.164,0,0.333,0.012,0.507,0.038c0.174,0.026,0.443,0.106,0.806,0.241l-0.143,0.731  c-0.353-0.17-0.608-0.272-0.764-0.306c-0.155-0.035-0.305-0.051-0.447-0.051c-0.25,0-0.43,0.055-0.547,0.165  c-0.117,0.111-0.175,0.241-0.175,0.394c0,0.1,0.027,0.197,0.078,0.29c0.052,0.094,0.182,0.248,0.389,0.463l0.428,0.441  c0.237,0.244,0.404,0.458,0.504,0.647c0.099,0.189,0.15,0.392,0.15,0.612c0,0.398-0.152,0.719-0.453,0.966  c-0.303,0.247-0.712,0.37-1.231,0.37c-0.151,0-0.307-0.012-0.468-0.038c-0.163-0.024-0.319-0.057-0.469-0.1  C-261.252,394.991-261.457,394.916-261.717,394.808z M-262.566,395.084c-0.202,0.06-0.39,0.089-0.562,0.089  c-0.401,0-0.708-0.095-0.924-0.286c-0.216-0.192-0.322-0.434-0.322-0.728c0-0.189,0.026-0.418,0.077-0.692l0.495-2.538h-0.699  l0.126-0.653h0.701l0.169-0.868l0.875-0.111l-0.19,0.978h1.192l-0.138,0.653h-1.182l-0.513,2.633  c-0.049,0.243-0.073,0.403-0.073,0.481c0,0.124,0.042,0.235,0.127,0.332c0.085,0.098,0.239,0.146,0.461,0.146  c0.151,0,0.317-0.03,0.507-0.089L-262.566,395.084z M-268.46,392.647c0.515-0.05,0.91-0.137,1.183-0.256  c0.276-0.12,0.493-0.282,0.652-0.483c0.16-0.2,0.239-0.394,0.239-0.58c0-0.117-0.048-0.227-0.14-0.327  c-0.094-0.102-0.213-0.153-0.361-0.153c-0.199,0-0.395,0.065-0.595,0.195c-0.161,0.102-0.31,0.237-0.445,0.404  c-0.109,0.132-0.205,0.276-0.29,0.434C-268.298,392.039-268.379,392.294-268.46,392.647z M-265.749,394.582  c-0.742,0.393-1.442,0.59-2.097,0.59c-0.493,0-0.872-0.147-1.143-0.441c-0.269-0.294-0.403-0.693-0.403-1.199  c0-0.549,0.124-1.08,0.372-1.595c0.247-0.515,0.583-0.937,1.009-1.27c0.424-0.333,0.884-0.498,1.382-0.498  c0.346,0,0.61,0.085,0.794,0.251c0.183,0.168,0.276,0.404,0.276,0.706c0,0.361-0.113,0.693-0.339,0.998  c-0.225,0.304-0.562,0.563-1.01,0.773c-0.448,0.212-0.989,0.344-1.629,0.396c0,0.407,0.087,0.709,0.261,0.899  c0.174,0.192,0.402,0.286,0.68,0.286c0.221,0,0.519-0.061,0.892-0.179c0.373-0.119,0.745-0.304,1.119-0.558L-265.749,394.582z   M-270.888,389.407l0.173-0.868h0.882l-0.168,0.868H-270.888z M-271.989,395.063l0.932-4.788h0.886l-0.935,4.788H-271.989z"/> <path class="st0" d="M-277.071,399.666l1.475-7.569h-0.986l0.167-0.842h0.982l0.055-0.278c0.161-0.843,0.425-1.543,1.053-2.083  c0.233-0.201,0.504-0.365,0.754-0.451c0.242-0.082,0.551-0.128,0.962-0.128c0.317,0,0.597,0.056,0.967,0.171l-0.165,0.824  c-0.264-0.108-0.553-0.168-0.972-0.168c-0.389,0-0.71,0.172-0.989,0.489c-0.28,0.317-0.496,0.82-0.624,1.508l-0.023,0.117h1.667  l-0.167,0.842h-1.664l-1.48,7.569h-1.014V399.666z"/> </symbol><symbol viewBox="0 0.5 35 35" id="icon-phone"><title>phone</title> <g> <circle cx="17.5" cy="26.6" r="1"/> </g> <g> <path d="M22,10.6v13h-9v-13H22 M23,9.6H12v15h11V9.6L23,9.6z"/> </g> <g> <path d="M23,7.6c0.6,0,1,0.4,1,1v19c0,0.6-0.4,1-1,1H12c-0.6,0-1-0.4-1-1v-19c0-0.6,0.4-1,1-1H23 M23,6.6H12c-1.1,0-2,0.9-2,2v19   c0,1.1,0.9,2,2,2h11c1.1,0,2-0.9,2-2v-19C25,7.4,24.1,6.6,23,6.6L23,6.6z"/> </g> </symbol><symbol viewBox="0 0 35 35" id="icon-play"><title>play</title> <g> <path d="M11.571,11.232l10.857,6.269l-10.857,6.267V11.232 M10.571,9.5v16l13.857-7.999L10.571,9.5L10.571,9.5z"/> </g> </symbol><symbol viewBox="0 0 35 35" id="icon-poi"><title>icoon/POI_NS_Blue</title><desc>Created with Sketch.</desc> <!-- Generator: Sketch 40.3 (33839) - http://www.bohemiancoding.com/sketch -->    <g id="poi-Symbols" stroke="none" stroke-width="1" fill="none" fill-rule="evenodd"> <g id="poi-icoon/POI_NS_Blue" fill="#003082"> <g id="poi-pin" transform="translate(10.000000, 6.000000)"> <path d="M7.17284314,5.05864135 C7.4220098,5.05864135 7.62391748,4.85008861 7.62391748,4.59272152 C7.62391748,4.33564557 7.4220098,4.12680169 7.17284314,4.12680169 C5.41448938,4.12680169 3.98347222,5.60491561 3.98347222,7.42104219 C3.98347222,9.23765401 5.41448938,10.7153797 7.17284314,10.7153797 C8.93147876,10.7153797 10.3621201,9.23765401 10.3621201,7.42104219 C10.3621201,6.69552321 10.1382271,6.00746414 9.71439951,5.43091139 C9.5638848,5.22614346 9.28089461,5.18596624 9.08236928,5.3414346 C8.88421977,5.49719409 8.84532271,5.7891097 8.99574346,5.99416878 C9.2995915,6.40739241 9.46006536,6.90058228 9.46006536,7.42104219 C9.46006536,8.72359916 8.43389706,9.78354008 7.17284314,9.78354008 C5.91178922,9.78354008 4.88562092,8.72359916 4.88562092,7.42104219 C4.88562092,6.11848523 5.91178922,5.05864135 7.17284314,5.05864135 L7.17284314,5.05864135 Z" id="poi-Fill-4"/> <path d="M7.17284314,0.0122278481 C3.21755719,0.0122278481 0,3.33567932 0,7.42104219 C0,11.0743544 2.45342729,15.8634008 4.51168301,19.2372194 C4.6441585,19.4547975 4.92273284,19.5200127 5.13337827,19.382789 C5.34402369,19.2459536 5.40753676,18.958211 5.27468546,18.7406329 C1.66073529,12.8158523 0.902148693,9.315 0.902148693,7.42104219 C0.902148693,3.84973418 3.71523284,0.943970464 7.17284314,0.943970464 C10.6307353,0.943970464 13.4439134,3.84934599 13.4439134,7.42104219 C13.4439134,13.2211181 6.88252451,22.0636962 6.81609886,22.1523966 C6.66379902,22.356 6.70006536,22.648692 6.89718137,22.805616 C6.97939134,22.8711224 7.07625817,22.9030506 7.17284314,22.9030506 C7.30747958,22.9030506 7.44108252,22.8408439 7.52996324,22.7217679 C7.80806781,22.3498861 14.3459681,13.5391392 14.3459681,7.42104219 C14.3456863,3.33567932 11.1280351,0.0122278481 7.17284314,0.0122278481 L7.17284314,0.0122278481 Z" id="poi-Fill-1"/> </g> </g> </g> </symbol><symbol viewBox="0 0 35 35" id="icon-print"><title>print</title> <path d="M26,16.5h-1v-2c0-0.276-0.224-0.5-0.5-0.5h-14c-0.276,0-0.5,0.224-0.5,0.5v2H9v-2c0-0.827,0.673-1.5,1.5-1.5h14  c0.827,0,1.5,0.673,1.5,1.5V16.5z"/> <polygon points="22,13 21,13 21,9 14,9 14,13 13,13 13,8 22,8 "/> <g> <path d="M23.663,27H11.337l2.286-8h7.754L23.663,27z M12.663,26h9.674l-1.714-6h-6.246L12.663,26z"/> </g> <polygon points="9,18 9,22 13,22 14,21 10,21 10,19 25,19 25,21 21,21 22,22 26,22 26,18 "/> </symbol><symbol viewBox="0 0 75 75" id="icon-public-transport"><title>public-transport</title> <g> <circle cx="15" cy="38.25" r="0.75"/> <circle cx="20" cy="38.25" r="0.75"/> <path d="M21,27h-7c-1.104,0-2,0.895-2,2v1v6v4c0,1.105,0.896,2,2,2h7c1.104,0,2-0.895,2-2v-4v-6v-1C23,27.895,22.104,27,21,27z    M22,31v4h-1v-4H22z M20,35h-5v-4h5V35z M14,35h-1v-4h1V35z M22,40c0,0.551-0.448,1-1,1h-7c-0.552,0-1-0.449-1-1v-4h9V40z M13,30   v-1c0-0.551,0.448-1,1-1h7c0.552,0,1,0.449,1,1v1H13z"/> <path d="M13.5,22h1.009c0,0.04-0.005,0.08,0.006,0.121L15.235,25h1.03l-0.75-3h3.97l-0.75,3h1.03l0.72-2.879   c0.01-0.041,0.006-0.081,0.006-0.121H21.5c0.276,0,0.5-0.224,0.5-0.5S21.776,21,21.5,21h-8c-0.276,0-0.5,0.224-0.5,0.5   S13.224,22,13.5,22z"/> <path d="M8.723,47.584c-0.23,0.152-0.292,0.463-0.139,0.693C8.68,48.422,8.839,48.5,9,48.5c0.095,0,0.191-0.027,0.277-0.084l6-4   c0.144-0.096,0.213-0.255,0.214-0.416h-1.392L8.723,47.584z"/> <path d="M16.6,47.7c-0.166,0.221-0.121,0.534,0.1,0.7c0.09,0.066,0.195,0.1,0.299,0.1c0.152,0,0.302-0.068,0.4-0.2l3-4   c0.068-0.09,0.092-0.194,0.092-0.3h-1.116L16.6,47.7z"/> <circle cx="54.5" cy="38.5" r="1"/> <circle cx="60.5" cy="38.5" r="1"/> <path d="M63,26H52c-1.104,0-2,0.895-2,2v12c0,1.105,0.896,2,2,2h11c1.104,0,2-0.895,2-2V28C65,26.895,64.104,26,63,26z M53,27h9v8   h-9V27z M64,40c0,0.551-0.448,1-1,1H52c-0.552,0-1-0.449-1-1V28c0-0.551,0.448-1,1-1v8c0,0.552,0.448,1,1,1h9c0.552,0,1-0.448,1-1   v-8c0.552,0,1,0.449,1,1V40z"/> <path d="M48.5,29c-0.275,0-0.5,0.224-0.5,0.5V32c0,0.276,0.225,0.5,0.5,0.5S49,32.276,49,32v-2.5C49,29.224,48.775,29,48.5,29z"/> <path d="M52.75,45h0.5c0.414,0,0.75-0.336,0.75-0.75V43h-2v1.25C52,44.664,52.336,45,52.75,45z"/> <path d="M61.75,45h0.5c0.414,0,0.75-0.336,0.75-0.75V43h-2v1.25C61,44.664,61.336,45,61.75,45z"/> <circle cx="33.5" cy="37.5" r="1"/> <circle cx="39.5" cy="37.5" r="1"/> <path d="M31,42h11c1.104,0,2-0.895,2-2V28c0-1.105-0.896-2-2-2v-1c0-0.552-0.448-1-1-1h-9c-0.552,0-1,0.448-1,1v1  c-1.104,0-2,0.895-2,2v12C29,41.105,29.896,42,31,42z M32,25h9v1h-9V25z M32,27h4v7h-4V27z M37,27h4v7h-4V27z M30,28  c0-0.551,0.448-1,1-1v7c0,0.552,0.448,1,1,1h9c0.552,0,1-0.448,1-1v-7c0.552,0,1,0.449,1,1v12c0,0.551-0.448,1-1,1H31  c-0.552,0-1-0.449-1-1V28z"/> <path d="M30.833,51.061c0.055,0.021,0.111,0.029,0.167,0.029c0.206,0,0.398-0.128,0.471-0.333l2-5.64  c0.014-0.039,0.013-0.078,0.017-0.117h-1.036l-1.923,5.423C30.437,50.684,30.573,50.969,30.833,51.061z"/> <path d="M39.529,45.117l2,5.64c0.072,0.205,0.266,0.333,0.471,0.333c0.057,0,0.111-0.009,0.167-0.029  c0.26-0.092,0.396-0.377,0.304-0.638L40.548,45h-1.036C39.516,45.039,39.516,45.078,39.529,45.117z"/> </g> </symbol><symbol viewBox="0 0 75 75" id="icon-route"><title>icon--subscription-route-free</title>  <g> <path d="M57.583,38.167c-1.687,0-3.08,1.226-3.358,2.834L48,41.003V39h-1v2.002l-7,0.002V39h-1v2.005h-4.287L31.207,37.5         l1.146-1.146l-0.707-0.707L30.5,36.793L26.207,32.5l1.146-1.146l-0.707-0.707L25.5,31.793l-4.18-4.18         c0.42-0.57,0.68-1.267,0.68-2.03c0-1.887-1.53-3.417-3.417-3.417s-3.417,1.53-3.417,3.417S16.696,29,18.583,29         c0.763,0,1.46-0.26,2.03-0.682l13.683,13.651l19.91,0.014C54.408,43.68,55.834,45,57.583,45C59.471,45,61,43.471,61,41.583         S59.471,38.167,57.583,38.167z M16.167,25.583c0-1.333,1.084-2.417,2.417-2.417s2.417,1.084,2.417,2.417S19.917,28,18.584,28         C17.252,28,16.168,26.916,16.167,25.583L16.167,25.583z M57.583,44c-1.333,0-2.417-1.084-2.417-2.417s1.084-2.417,2.417-2.417         S60,40.25,60,41.583S58.916,44,57.583,44z"/> </g> </symbol><symbol viewBox="0 0 35 35" id="icon-stopwatch"><title>stopwatch</title> <g> <path d="M19.2,8.8l0.3-1.3c0-0.1,0-0.2-0.1-0.3C19.4,7.1,19.2,7,19.1,7h-3.2c-0.1,0-0.2,0.1-0.3,0.2c-0.1,0.1-0.1,0.2-0.1,0.3   l0.3,1.3c-4.5,0.8-8,4.8-8,9.5c0,5.3,4.3,9.7,9.7,9.7c5.3,0,9.7-4.3,9.7-9.7C27.2,13.6,23.7,9.6,19.2,8.8L19.2,8.8z M18.6,7.8   l-0.2,0.8h-1.9l-0.2-0.8H18.6z M17.5,27.2c-4.9,0-8.9-4-8.9-8.9c0-4.9,4-8.9,8.9-8.9c4.9,0,8.9,4,8.9,8.9   C26.4,23.2,22.4,27.2,17.5,27.2L17.5,27.2z M17.5,27.2"/> <path d="M18.7,18.3c0-0.5-0.3-1-0.8-1.1V11h-0.8v6.1c-0.5,0.2-0.8,0.6-0.8,1.1c0,0.7,0.5,1.2,1.2,1.2c0.1,0,0.1,0,0.2,0l2.5,3.8   l0.7-0.4l-2.5-3.7C18.6,18.9,18.7,18.6,18.7,18.3L18.7,18.3z M17.5,18.7c-0.2,0-0.4-0.2-0.4-0.4c0-0.2,0.2-0.4,0.4-0.4   c0.2,0,0.4,0.2,0.4,0.4C17.9,18.5,17.7,18.7,17.5,18.7L17.5,18.7z M17.5,18.7"/> </g> </symbol><symbol viewBox="0 0 75 75" id="icon-student"><title>student</title> <g> <path d="M25,41.512V54c0,0.553,0.448,1,1,1s1-0.447,1-1v-6.296l10.501,6.063l12.694-7.394v-1.156l-12.696,7.394L27,46.55v-3.883   l10.5,6.062l23.499-13.567L37.5,21.547L14.001,35.162L25,41.512z M37.5,22.703L59.001,35.16L37.5,47.575l-10.447-6.032l10.45-6.095   l-1.996-1.152l-10.449,6.096l-9.06-5.231L37.5,22.703z"/> </g> </symbol><symbol viewBox="0 0 75 75" id="icon-subscription-2"><title>subscription-2</title> <g> <rect x="35" y="30" width="11" height="1"/> <path d="M59.354,38.146L50,28.793V22c0-1.105-0.895-2-2-2H17c-1.105,0-2,0.895-2,2v19c0,1.105,0.895,2,2,2h20.916         c0.549,2.646,1.078,5.173,1.152,5.441c0.236,0.865,0.554,1.422,1.082,1.916c0.096,0.093,4.996,4.996,4.996,4.996         c0.099,0.098,0.227,0.146,0.354,0.146s0.256-0.049,0.354-0.146c0.194-0.195,0.194-0.514,0-0.707         c-4.982-4.984-5.004-5.004-5.013-5.014c-0.401-0.374-0.62-0.77-0.809-1.455c-0.123-0.449-1.804-8.604-2.438-11.689         c-0.217-1.308,0.666-2.306,1.608-2.482c1.401-0.264,2.368,0.286,2.858,1.624l2.467,7.033c0.072,0.206,0.266,0.33,0.471,0.331V43h3         c1.105,0,2-0.895,2-2V30.207l8.646,8.646C58.881,39.088,59,39.811,59,41v14c0,0.275,0.225,0.5,0.5,0.5S60,55.275,60,55V41         C60,39.854,59.922,38.714,59.354,38.146z M49,41c0,0.551-0.449,1-1,1h-2.646l-2.353-6.705c-0.655-1.792-2.108-2.614-3.983-2.27         c-1.405,0.262-2.727,1.724-2.408,3.647c0.044,0.215,0.554,2.696,1.098,5.327H17c-0.551,0-1-0.449-1-1V22c0-0.551,0.449-1,1-1h31         c0.551,0,1,0.449,1,1v5H33v1h16V41z"/> <path d="M20,25v11h9V25H20z M28,35h-7v-9h7V35z"/> </g> </symbol><symbol viewBox="0 0 75 75" id="icon-subscription-3"><title>subscription-3</title> <g> <path d="M59.348,38.141c-0.48-0.465-8.212-8.209-9.348-9.347V22c0-1.105-0.895-2-2-2H17c-1.105,0-2,0.895-2,2v19   c0,1.105,0.895,2,2,2h20.916c0.549,2.646,1.078,5.173,1.152,5.442c0.237,0.864,0.554,1.421,1.083,1.915   c0.095,0.093,4.996,4.996,4.996,4.996c0.098,0.098,0.226,0.146,0.354,0.146s0.256-0.049,0.354-0.146   c0.195-0.195,0.195-0.512,0-0.707c-4.983-4.984-5.004-5.004-5.012-5.012c-0.401-0.374-0.62-0.769-0.809-1.457   c-0.123-0.448-1.804-8.602-2.438-11.687c-0.217-1.308,0.666-2.306,1.608-2.482c1.403-0.264,2.368,0.286,2.858,1.624l2.468,7.033   c0.073,0.206,0.265,0.331,0.47,0.33L45,43h3c1.105,0,2-0.895,2-2V30.209c2.256,2.26,8.22,8.233,8.652,8.651   c0.36,0.349,0.369,0.786,0.353,1.663L59,55c0,0.276,0.224,0.5,0.5,0.5S60,55.276,60,55V41l0.005-0.46   C60.021,39.649,60.036,38.807,59.348,38.141z M16,22c0-0.551,0.449-1,1-1h31c0.551,0,1,0.449,1,1v3H16V22z M17,42   c-0.551,0-1-0.449-1-1v-3h20.884c0.208,1.012,0.511,2.479,0.825,4H17z M49,41c0,0.551-0.449,1-1,1h-2.646l-1.404-4H49V41z M49,37   h-5.4l-0.351-1H49V37z M49,35h-6.132c-0.172-0.386-0.383-0.721-0.632-1H49V35z M49,29H36v1h13v1H29v1h20v1h-8.586   c-0.363-0.058-0.753-0.055-1.164,0H34v1h3.368c-0.253,0.285-0.457,0.621-0.597,1H31v1h5.567c-0.006,0.217,0.006,0.441,0.044,0.673   c0.008,0.038,0.032,0.155,0.067,0.327H16v-1h13v-1H16v-1h16v-1H16v-1h11v-1H16v-1h18v-1H16v-1h15v-1H16v-1h33v1H33v1h16V29z"/> </g> </symbol><symbol viewBox="0 0 35 35" id="icon-subscription"><title>subscription</title> <g> <circle cx="9.5" cy="13.5" r="0.5"/> </g> <g> <circle cx="11.5" cy="13.5" r="0.5"/> </g> <g> <path d="M30.5,28c-0.3,0-0.5-0.2-0.5-0.5v-8c0-0.6-0.1-0.9-0.4-1.1l-5.5-5.5c-0.2-0.2-0.2-0.5,0-0.7s0.5-0.2,0.7,0l5.5,5.5   c0.6,0.6,0.6,1.3,0.6,1.9v8C31,27.8,30.8,28,30.5,28z"/> </g> <g> <path d="M23,27.5c-0.1,0-0.3,0-0.4-0.1l-3.1-3.1c-0.3-0.3-0.7-0.7-0.8-1.1c-0.1-0.4-1.4-5.8-1.5-6c-0.1-0.5-0.1-1,0.2-1.5   c0.3-0.5,0.8-0.8,1.4-0.9c0.4-0.1,1.8-0.2,2.4,1.5l1.7,4.1c0.1,0.3,0,0.5-0.3,0.7c-0.3,0.1-0.5,0-0.7-0.3l-1.7-4.1   c-0.3-0.8-0.9-0.9-1.3-0.9c-0.3,0.1-0.6,0.2-0.7,0.5c-0.1,0.2-0.2,0.4-0.1,0.7c0.5,1.9,1.4,5.7,1.5,6c0.1,0.2,0.3,0.5,0.5,0.7   l3.1,3.1c0.2,0.2,0.2,0.5,0,0.7C23.3,27.5,23.1,27.5,23,27.5z"/> </g> <g> <path d="M5,8.5v11C5,20.3,5.7,21,6.5,21h12.7l-0.3-1H6.5C6.2,20,6,19.8,6,19.5v-11C6,8.2,6.2,8,6.5,8h17C23.8,8,24,8.2,24,8.5v11   c0,0.3-0.2,0.5-0.5,0.5h-1.4l0.4,1h1c0.8,0,1.5-0.7,1.5-1.5v-11C25,7.7,24.3,7,23.5,7h-17C5.7,7,5,7.7,5,8.5z"/> </g> <g> <path d="M13,17H8v-6h5V17z M9,16h3v-4H9V16z"/> </g> <g> <rect x="15" y="11" width="10" height="1"/> </g> <g> <rect x="16" y="13" width="6" height="1"/> </g> </symbol><symbol viewBox="0 0 35 35" id="icon-subway"><title>subway</title> <path d="M25.5,9C25.776,9,26,9.224,26,9.5v16c0,0.276-0.224,0.5-0.5,0.5h-16C9.224,26,9,25.776,9,25.5v-16C9,9.224,9.224,9,9.5,9  H25.5 M25.5,8h-16C8.672,8,8,8.672,8,9.5v16C8,26.328,8.672,27,9.5,27h16c0.828,0,1.5-0.672,1.5-1.5v-16C27,8.672,26.328,8,25.5,8  L25.5,8z"/> <polygon points="20.831,13 17.5,21.225 14.169,13 13,13 13,22 14,22 14,14.714 16.951,22 18.049,22 21,14.715 21,22 22,22 22,13 "/> </symbol><symbol viewBox="0 0 35 35" id="icon-ticket"><title>ticket</title> <circle cx="5.5" cy="10" r="0.5"/> <circle cx="5.5" cy="9.5" r="0.5"/> <circle cx="5.5" cy="12.5" r="0.5"/> <circle cx="8.2" cy="12.5" r="0.5"/> <circle cx="10.9" cy="12.5" r="0.5"/> <circle cx="13.6" cy="12.5" r="0.5"/> <circle cx="16.4" cy="12.5" r="0.5"/> <circle cx="19.1" cy="12.5" r="0.5"/> <circle cx="21.8" cy="12.5" r="0.5"/> <circle cx="5.5" cy="15" r="0.5"/> <circle cx="24.5" cy="10.5" r="0.5"/> <g> <path d="M30.5,28c-0.3,0-0.5-0.2-0.5-0.5v-8c0-0.6-0.1-0.9-0.4-1.1l-5.5-5.5c-0.2-0.2-0.2-0.5,0-0.7s0.5-0.2,0.7,0l5.5,5.5   c0.6,0.6,0.6,1.3,0.6,1.9v8C31,27.8,30.8,28,30.5,28z"/> </g> <g> <path d="M23,27.5c-0.1,0-0.3,0-0.4-0.1l-3.1-3.1c-0.3-0.3-0.7-0.7-0.8-1.1c-0.1-0.4-1.4-5.8-1.5-6c-0.1-0.5-0.1-1,0.2-1.5   c0.3-0.5,0.8-0.8,1.4-0.9c0.4-0.1,1.8-0.2,2.4,1.5l1.7,4.1c0.1,0.3,0,0.5-0.3,0.7c-0.3,0.1-0.5,0-0.7-0.3l-1.7-4.1   c-0.3-0.8-0.9-0.9-1.3-0.9c-0.3,0.1-0.6,0.2-0.7,0.5c-0.1,0.2-0.2,0.4-0.1,0.7c0.5,1.9,1.4,5.7,1.5,6c0.1,0.2,0.3,0.5,0.5,0.7   l3.1,3.1c0.2,0.2,0.2,0.5,0,0.7C23.3,27.5,23.1,27.5,23,27.5z"/> </g> <g> <path d="M6.5,20C6.2,20,6,19.8,6,19.5V15H5v4.5C5,20.3,5.7,21,6.5,21h12.7l-0.3-1H6.5z M23.5,7h-17C5.7,7,5,7.7,5,8.5V10h1V8.5   C6,8.2,6.2,8,6.5,8h17C23.8,8,24,8.2,24,8.5v2h1v-2C25,7.7,24.3,7,23.5,7z M24,19.5c0,0.3-0.2,0.5-0.5,0.5h-1.4l0.4,1h1   c0.8,0,1.5-0.7,1.5-1.5v-7h-1V19.5z"/> </g> <circle cx="5.5" cy="10" r="0.5"/> <circle cx="5.5" cy="9.5" r="0.5"/> <circle cx="5.5" cy="12.5" r="0.5"/> <circle cx="8.2" cy="12.5" r="0.5"/> <circle cx="10.9" cy="12.5" r="0.5"/> <circle cx="13.6" cy="12.5" r="0.5"/> <circle cx="16.4" cy="12.5" r="0.5"/> <circle cx="19.1" cy="12.5" r="0.5"/> <circle cx="21.8" cy="12.5" r="0.5"/> <circle cx="5.5" cy="15" r="0.5"/> <circle cx="24.5" cy="10.5" r="0.5"/> <g> <path d="M30.5,28c-0.3,0-0.5-0.2-0.5-0.5v-8c0-0.6-0.1-0.9-0.4-1.1l-5.5-5.5c-0.2-0.2-0.2-0.5,0-0.7s0.5-0.2,0.7,0l5.5,5.5   c0.6,0.6,0.6,1.3,0.6,1.9v8C31,27.8,30.8,28,30.5,28z"/> </g> <g> <path d="M23,27.5c-0.1,0-0.3,0-0.4-0.1l-3.1-3.1c-0.3-0.3-0.7-0.7-0.8-1.1c-0.1-0.4-1.4-5.8-1.5-6c-0.1-0.5-0.1-1,0.2-1.5   c0.3-0.5,0.8-0.8,1.4-0.9c0.4-0.1,1.8-0.2,2.4,1.5l1.7,4.1c0.1,0.3,0,0.5-0.3,0.7c-0.3,0.1-0.5,0-0.7-0.3l-1.7-4.1   c-0.3-0.8-0.9-0.9-1.3-0.9c-0.3,0.1-0.6,0.2-0.7,0.5c-0.1,0.2-0.2,0.4-0.1,0.7c0.5,1.9,1.4,5.7,1.5,6c0.1,0.2,0.3,0.5,0.5,0.7   l3.1,3.1c0.2,0.2,0.2,0.5,0,0.7C23.3,27.5,23.1,27.5,23,27.5z"/> </g> <g> <path d="M6.5,20C6.2,20,6,19.8,6,19.5V15H5v4.5C5,20.3,5.7,21,6.5,21h12.7l-0.3-1H6.5z M23.5,7h-17C5.7,7,5,7.7,5,8.5V10h1V8.5   C6,8.2,6.2,8,6.5,8h17C23.8,8,24,8.2,24,8.5v2h1v-2C25,7.7,24.3,7,23.5,7z M24,19.5c0,0.3-0.2,0.5-0.5,0.5h-1.4l0.4,1h1   c0.8,0,1.5-0.7,1.5-1.5v-7h-1V19.5z"/> </g> </symbol><symbol viewBox="0 0 35 35" id="icon-train"><title>train</title> <path d="M15,18c-0.552,0-1,0.448-1,1s0.448,1,1,1s1-0.448,1-1S15.552,18,15,18z M20,18c-0.552,0-1,0.448-1,1s0.448,1,1,1  s1-0.448,1-1S20.552,18,20,18z M17.5,6c-2.398,0-4.626,0.711-6.5,1.922v13.156C12.874,22.289,15.102,23,17.5,23  s4.626-0.711,6.5-1.922V7.922C22.126,6.711,19.898,6,17.5,6z M17.5,7c1.491,0,2.91,0.305,4.205,0.847l-1.066,7.18  c-2.036,0.628-4.241,0.628-6.277,0l-1.067-7.18C14.59,7.305,16.009,7,17.5,7z M23,20.502C21.38,21.446,19.507,22,17.5,22  s-3.88-0.554-5.5-1.498V8.498c0.116-0.068,0.232-0.137,0.35-0.201l1.112,7.485l0.289,0.098c1.21,0.411,2.472,0.619,3.749,0.619  s2.538-0.208,3.749-0.619l0.289-0.098l1.112-7.485c0.119,0.064,0.234,0.133,0.35,0.201V20.502z M21.559,25h-1.054  c0,0.076,0.012,0.151,0.048,0.224L21.441,27H13.56l0.888-1.776c0.036-0.072,0.048-0.148,0.048-0.224h-1.054l-1.889,3.776  c-0.124,0.247-0.023,0.547,0.224,0.671C11.848,29.483,11.924,29.5,12,29.5c0.184,0,0.36-0.101,0.448-0.276L13.06,28h8.881  l0.612,1.224C22.641,29.399,22.817,29.5,23,29.5c0.075,0,0.151-0.017,0.223-0.053c0.248-0.123,0.348-0.424,0.224-0.671L21.559,25z"/> </symbol><symbol viewBox="0 0 35 35" id="icon-tram"><title>tram</title> <g> <g> <circle cx="15" cy="20.25" r="0.75"/> </g> </g> <g> <g> <circle cx="20" cy="20.25" r="0.75"/> </g> </g> <g> <g> <path d="M21,10c0.552,0,1,0.449,1,1v11c0,0.551-0.448,1-1,1h-7c-0.552,0-1-0.449-1-1V11c0-0.551,0.448-1,1-1H21 M21,9h-7    c-1.104,0-2,0.895-2,2v11c0,1.105,0.896,2,2,2h7c1.104,0,2-0.895,2-2V11C23,9.895,22.104,9,21,9L21,9z"/> </g> </g> <g> <g> <path d="M22,13v4h-9v-4H22 M23,12H12v6h11V12L23,12z"/> </g> </g> <g> <g> <rect x="14" y="13" width="1" height="4"/> </g> </g> <g> <g> <rect x="20" y="13" width="1" height="4"/> </g> </g> <g> <g> <path d="M13,3.5C13,3.776,13.224,4,13.5,4h1.009c0,0.04-0.005,0.08,0.006,0.121L15.235,7h1.03l-0.75-3h3.97l-0.75,3h1.03    l0.72-2.879C20.495,4.08,20.491,4.04,20.491,4H21.5C21.776,4,22,3.776,22,3.5C22,3.224,21.776,3,21.5,3h-8    C13.224,3,13,3.224,13,3.5z"/> </g> </g> <g> <path d="M22.447,29.776L20.559,26h-1.054c0,0.076,0.012,0.151,0.048,0.224l2,4C21.641,30.399,21.817,30.5,22,30.5   c0.075,0,0.151-0.017,0.223-0.053C22.471,30.324,22.571,30.023,22.447,29.776z M12.553,29.776   c-0.124,0.247-0.023,0.547,0.224,0.671C12.848,30.483,12.924,30.5,13,30.5c0.184,0,0.36-0.101,0.448-0.276l2-4   c0.036-0.072,0.048-0.148,0.048-0.224h-1.054L12.553,29.776z"/> </g> </symbol><symbol viewBox="0 0 35 35" id="icon-transfer-small"><title>transfer-small</title> <g> <path d="M19.586,15.379c0.643-0.971,0.537-2.291-0.318-3.146C18.78,11.744,18.14,11.5,17.5,11.5s-1.28,0.244-1.768,0.732   c-0.976,0.976-0.976,2.559,0,3.536C16.22,16.256,16.86,16.5,17.5,16.5c0.481,0,0.962-0.138,1.379-0.414L24,21.207v-1.414   L19.586,15.379z M18.561,15.061c-0.283,0.283-0.66,0.439-1.061,0.439s-0.777-0.156-1.061-0.439c-0.585-0.585-0.585-1.536,0-2.121   c0.283-0.283,0.66-0.439,1.061-0.439s0.777,0.156,1.061,0.439C19.146,13.524,19.146,14.476,18.561,15.061z M17.5,18.5   c-0.481,0-0.962,0.138-1.379,0.414L11,13.793v1.414l4.414,4.414c-0.643,0.971-0.537,2.291,0.318,3.146   C16.22,23.256,16.86,23.5,17.5,23.5s1.28-0.244,1.768-0.732c0.976-0.976,0.976-2.559,0-3.536C18.78,18.744,18.14,18.5,17.5,18.5z    M18.561,22.061c-0.283,0.283-0.66,0.439-1.061,0.439s-0.777-0.156-1.061-0.439c-0.585-0.585-0.585-1.536,0-2.121l0,0   c0.283-0.283,0.66-0.439,1.061-0.439s0.777,0.156,1.061,0.439C19.146,20.524,19.146,21.476,18.561,22.061z"/> </g> </symbol><symbol viewBox="0 0 35 35" id="icon-twitter"><title>twitter</title> <g> <path d="M27.797,10.53c-0.185,0.082-0.373,0.157-0.563,0.225c0.286-0.401,0.51-0.846,0.662-1.321l0.401-1.254l-1.133,0.672   c-0.732,0.435-1.523,0.743-2.35,0.931c-0.887-0.828-2.055-1.315-3.275-1.315c-2.651,0-4.809,2.157-4.809,4.809   c0,0.146,0.006,0.291,0.019,0.435c-3.078-0.319-5.93-1.854-7.9-4.271L8.847,9.442C8.81,9.396,8.767,9.354,8.714,9.323   c-0.24-0.137-0.544-0.058-0.684,0.18c-0.426,0.731-0.651,1.567-0.651,2.418c0,0.962,0.285,1.883,0.801,2.66   c-0.031-0.016-0.062-0.033-0.093-0.05l-0.743-0.358v0.85c0,1.493,0.694,2.857,1.799,3.749l-0.521-0.1l0.257,0.802   c0.488,1.526,1.691,2.678,3.172,3.13c-1.499,0.851-3.288,1.195-4.992,0.997c-0.272-0.037-0.522,0.164-0.555,0.438   c-0.023,0.196,0.074,0.375,0.229,0.475L6.73,24.519c0.007,0.005,0.015,0.009,0.022,0.013c0.001,0,0.001,0.001,0.002,0.001   c2.051,1.308,4.419,2,6.851,2c7.986,0,12.758-6.487,12.758-12.758c0-0.113-0.005-0.224-0.008-0.337   c0.796-0.612,1.498-1.332,2.06-2.173l0.959-1.434L27.797,10.53z M25.558,12.812c-0.142,0.102-0.205,0.265-0.198,0.427l-0.009,0   c0.008,0.178,0.012,0.355,0.012,0.535c0,5.78-4.398,11.758-11.758,11.758c-1.583,0-3.133-0.324-4.575-0.935   c1.699-0.182,3.294-0.822,4.657-1.891l1.107-0.867l-1.406-0.026c-1.36-0.025-2.581-0.769-3.236-1.915   c0.434,0.01,0.863-0.055,1.279-0.168l2.045-0.555l-2.077-0.417c-1.514-0.304-2.672-1.497-2.976-2.992   c0.438,0.145,0.897,0.227,1.358,0.242l1.745,0.054l-1.452-0.97c-1.061-0.709-1.695-1.895-1.695-3.17   c0-0.435,0.082-0.861,0.225-1.267c2.257,2.443,5.383,3.934,8.714,4.102c0.008,0,0.017,0,0.025,0c0.148,0,0.289-0.065,0.384-0.18   c0.101-0.121,0.139-0.281,0.103-0.434c-0.065-0.28-0.099-0.572-0.099-0.868c0-2.1,1.708-3.809,3.809-3.809   c1.049,0,2.062,0.438,2.78,1.203l0.006-0.006c0.113,0.121,0.278,0.19,0.455,0.154c0.501-0.099,0.991-0.239,1.465-0.418   c-0.273,0.329-0.603,0.612-0.977,0.836l0.316,0.925c0.314-0.038,0.625-0.091,0.932-0.16C26.219,12.295,25.898,12.566,25.558,12.812   z"/> </g> </symbol><symbol viewBox="0 0 35 35" id="icon-volume_level2"><title>volume_level2</title> <g> <polygon points="11,20 7.5,20 7.5,15 11,15 11,16 8.5,16 8.5,19 11,19  "/> <path d="M21.7,11.8l-0.9,0.7c1.9,0.9,3.2,2.8,3.2,5s-1.3,4.1-3.2,5l0.9,0.7c2-1.1,3.3-3.2,3.3-5.7S23.7,13,21.7,11.8z M19,14.6v1             c0.9,0.2,1.5,1,1.5,1.9s-0.6,1.7-1.5,1.9v1c1.4-0.2,2.5-1.5,2.5-2.9S20.4,14.8,19,14.6z"/> <path d="M16,11c-0.2-0.1-0.6-0.2-1.1,0.3L9.8,16h1.5l4.2-3.9v10.7L11.3,19H9.8l5.1,4.7c0.3,0.3,0.6,0.3,0.7,0.3                 c0.1,0,0.2,0,0.3-0.1c0.2-0.1,0.5-0.3,0.5-1V12C16.5,11.3,16.1,11.1,16,11z"/> </g> </symbol><symbol viewBox="0 0 35 35" id="icon-walk"><title>walk</title> <g> <g> <path d="M21.502,11.75c-0.153,0-0.309-0.013-0.465-0.039c-1.494-0.258-2.502-1.682-2.248-3.176    c0.254-1.477,1.658-2.506,3.176-2.245c1.493,0.257,2.5,1.682,2.244,3.175C23.985,10.789,22.846,11.75,21.502,11.75z M21.5,7.25    c-0.854,0-1.579,0.612-1.724,1.454c-0.162,0.95,0.48,1.857,1.431,2.021c0.958,0.159,1.858-0.49,2.019-1.429    c0.162-0.951-0.478-1.857-1.428-2.021C21.698,7.258,21.598,7.25,21.5,7.25z"/> </g> </g> <g> <g> <path d="M13.872,17.461c-0.271,0-0.49-0.219-0.49-0.49c0-0.606,0.119-1.194,0.354-1.748c0.226-0.534,0.549-1.015,0.961-1.427    c0.413-0.413,0.893-0.736,1.427-0.962c1.11-0.469,2.386-0.468,3.496,0c0.249,0.105,0.366,0.393,0.261,0.642    c-0.105,0.25-0.395,0.364-0.642,0.261c-0.867-0.366-1.866-0.366-2.733,0c-0.417,0.176-0.792,0.43-1.116,0.752    c-0.323,0.323-0.576,0.698-0.752,1.116c-0.183,0.433-0.276,0.892-0.276,1.366C14.361,17.242,14.142,17.461,13.872,17.461z"/> </g> </g> <g> <path d="M11.4,29.5c0.17,0,0.335-0.086,0.429-0.243l3.769-6.282l-0.561-1.009l-4.066,6.776c-0.142,0.237-0.065,0.544,0.171,0.686   C11.223,29.477,11.312,29.5,11.4,29.5z"/> </g> <g> <path d="M22,18.007c-1.068,0-2.013-0.491-2.656-1.247l-0.543,0.905c0.816,0.827,1.948,1.342,3.199,1.342c0.276,0,0.5-0.224,0.5-0.5   S22.276,18.007,22,18.007z"/> </g> <g> <g> <path d="M21.715,29.786c-0.176,0-0.346-0.093-0.438-0.257l-5.714-10.286c-0.087-0.156-0.083-0.347,0.008-0.5L19,13.029    c0.142-0.236,0.449-0.314,0.686-0.171c0.237,0.142,0.313,0.449,0.171,0.686l-3.28,5.467l5.574,10.033    c0.134,0.241,0.047,0.545-0.194,0.68C21.88,29.766,21.797,29.786,21.715,29.786z"/> </g> </g> </symbol></svg>